{"glyphs":{"0":{"ha":844,"x_min":0,"x_max":0,"o":"m 397 -11 l 446 -11 b 778 447 683 -11 778 150 l 778 525 b 446 983 778 822 683 983 l 397 983 b 67 525 163 983 67 822 l 67 447 b 397 -11 67 150 163 -11 z m 401 96 b 186 433 250 96 186 208 l 186 539 b 401 876 186 764 250 876 l 444 876 b 660 539 596 876 660 764 l 660 433 b 444 96 660 208 596 96 z "},"1":{"ha":476,"x_min":0,"x_max":0,"o":"m 375 972 l 258 972 b 156 843 251 869 217 843 l 76 843 l 76 736 l 169 736 b 257 769 207 736 242 747 l 257 0 l 375 0 z "},"2":{"ha":778,"x_min":0,"x_max":0,"o":"m 88 657 l 210 657 b 408 879 204 790 283 879 b 601 696 519 879 601 807 b 460 492 601 611 564 544 l 311 415 b 75 85 211 365 75 258 l 75 0 l 729 0 l 729 107 l 190 107 b 358 315 190 201 279 275 l 497 386 b 724 693 646 460 724 567 b 408 983 724 869 592 983 b 88 657 208 983 81 856 z "},"3":{"ha":829,"x_min":0,"x_max":0,"o":"m 428 -11 b 771 275 610 -11 771 89 b 592 511 771 392 693 478 b 732 728 669 546 732 629 b 421 983 732 876 601 983 b 114 696 247 983 121 872 l 229 696 b 419 876 236 811 308 876 b 611 724 536 876 611 819 b 426 556 611 626 542 556 l 350 556 l 350 451 l 428 451 b 650 276 564 451 650 390 b 428 96 650 161 564 96 b 196 306 296 96 196 179 l 79 306 b 428 -11 79 115 232 -11 z "},"4":{"ha":883,"x_min":0,"x_max":0,"o":"m 568 0 l 686 0 l 686 243 l 838 243 l 838 350 l 686 350 l 686 972 l 547 972 l 46 350 l 46 243 l 568 243 z m 172 350 l 568 842 l 568 350 z "},"5":{"ha":831,"x_min":0,"x_max":0,"o":"m 407 -11 b 764 318 618 -11 764 121 b 422 651 764 515 625 651 b 221 572 349 651 268 617 l 264 865 l 694 865 l 694 972 l 174 972 l 99 435 l 196 435 b 408 549 225 506 301 549 b 642 318 550 549 642 457 b 407 96 642 179 550 96 b 193 274 289 96 208 160 l 79 274 b 407 -11 96 110 229 -11 z "},"6":{"ha":874,"x_min":0,"x_max":0,"o":"m 446 650 b 190 499 338 650 232 589 b 460 879 200 713 304 879 b 675 725 575 879 654 819 l 794 725 b 458 985 768 879 638 985 b 79 435 243 985 79 800 b 440 -11 79 167 218 -11 b 788 319 640 -11 788 128 b 446 650 788 510 647 650 z m 440 96 b 215 321 310 96 215 190 b 440 543 215 450 310 543 b 665 321 572 543 665 450 b 440 96 665 190 572 96 z "},"7":{"ha":785,"x_min":0,"x_max":0,"o":"m 250 0 l 369 0 b 493 435 369 128 383 251 l 760 875 l 760 972 l 58 972 l 58 865 l 625 865 l 401 503 b 250 0 269 289 251 147 z "},"8":{"ha":846,"x_min":0,"x_max":0,"o":"m 424 -11 b 768 276 611 -11 768 92 b 589 524 768 394 690 489 b 731 728 667 561 731 631 b 424 983 731 878 606 983 b 117 728 242 983 117 878 b 258 524 117 631 181 561 b 78 276 157 489 78 394 b 424 -11 78 92 236 -11 z m 424 569 b 235 726 308 569 235 629 b 424 879 235 822 308 879 b 613 726 539 879 613 822 b 424 569 613 629 539 569 z m 424 96 b 199 276 288 96 199 164 b 424 461 199 392 288 461 b 647 276 560 461 647 392 b 424 96 647 164 560 96 z "},"9":{"ha":872,"x_min":0,"x_max":0,"o":"m 428 322 b 682 474 535 322 642 385 b 413 93 674 260 569 93 b 197 247 297 93 218 153 l 79 247 b 415 -12 104 94 236 -12 b 793 538 629 -12 793 172 b 433 983 793 806 656 983 b 85 653 232 983 85 844 b 428 322 85 463 226 322 z m 432 876 b 657 651 564 876 657 783 b 432 429 657 522 564 429 b 207 651 300 429 207 522 b 432 876 207 783 300 876 z "},"\r":{"ha":349,"x_min":0,"x_max":0,"o":""}," ":{"ha":331,"x_min":0,"x_max":0,"o":""},"A":{"ha":901,"x_min":0,"x_max":0,"o":"m 768 0 l 892 0 l 504 972 l 397 972 l 10 0 l 133 0 l 235 263 l 668 263 z m 275 368 l 451 826 l 626 368 z "},"Á":{"ha":901,"x_min":0,"x_max":0,"o":"m 650 1254 l 521 1254 l 400 1049 l 506 1049 z m 768 0 l 892 0 l 504 972 l 397 972 l 10 0 l 133 0 l 235 263 l 668 263 z m 275 368 l 451 826 l 626 368 z "},"Ă":{"ha":901,"x_min":0,"x_max":0,"o":"m 453 1051 b 647 1244 564 1051 647 1133 l 556 1244 b 453 1139 556 1182 511 1139 b 350 1244 393 1139 350 1182 l 257 1244 b 453 1051 257 1133 339 1051 z m 768 0 l 892 0 l 504 972 l 397 972 l 10 0 l 133 0 l 235 263 l 668 263 z m 275 368 l 451 826 l 626 368 z "},"Â":{"ha":901,"x_min":0,"x_max":0,"o":"m 454 1165 l 547 1049 l 653 1049 l 500 1243 l 407 1243 l 256 1049 l 358 1049 z m 768 0 l 892 0 l 504 972 l 397 972 l 10 0 l 133 0 l 235 263 l 668 263 z m 275 368 l 451 826 l 626 368 z "},"Ä":{"ha":901,"x_min":0,"x_max":0,"o":"m 389 1229 l 283 1229 l 283 1100 l 389 1100 z m 617 1229 l 511 1229 l 511 1100 l 617 1100 z m 768 0 l 892 0 l 504 972 l 397 972 l 10 0 l 133 0 l 235 263 l 668 263 z m 275 368 l 451 826 l 626 368 z "},"À":{"ha":901,"x_min":0,"x_max":0,"o":"m 504 1049 l 383 1254 l 254 1254 l 399 1049 z m 768 0 l 892 0 l 504 972 l 397 972 l 10 0 l 133 0 l 235 263 l 668 263 z m 275 368 l 451 826 l 626 368 z "},"Ā":{"ha":901,"x_min":0,"x_max":0,"o":"m 636 1186 l 267 1186 l 267 1093 l 636 1093 z m 768 0 l 892 0 l 504 972 l 397 972 l 10 0 l 133 0 l 235 263 l 668 263 z m 275 368 l 451 826 l 626 368 z "},"Ą":{"ha":901,"x_min":0,"x_max":0,"o":"m 919 -119 b 856 -154 899 -142 881 -154 b 808 -110 826 -154 808 -137 b 892 0 808 -76 836 -46 l 504 972 l 397 972 l 10 0 l 133 0 l 235 263 l 668 263 l 768 0 l 804 0 b 714 -133 744 -36 714 -86 b 838 -244 714 -200 761 -244 b 967 -187 892 -244 931 -226 z m 275 368 l 451 826 l 626 368 z "},"Å":{"ha":901,"x_min":0,"x_max":0,"o":"m 450 1029 b 618 1183 546 1029 618 1094 b 450 1335 618 1269 546 1335 b 283 1183 354 1335 283 1269 b 450 1029 283 1094 354 1029 z m 450 1265 b 539 1183 501 1265 539 1231 b 450 1100 539 1135 501 1100 b 364 1183 400 1100 364 1135 b 450 1265 364 1231 400 1265 z m 768 0 l 892 0 l 504 972 l 397 972 l 10 0 l 133 0 l 235 263 l 668 263 z m 275 368 l 451 826 l 626 368 z "},"Ǻ":{"ha":901,"x_min":0,"x_max":0,"o":"m 450 1029 b 618 1183 546 1029 618 1094 b 507 1326 618 1251 574 1306 l 510 1326 l 654 1532 l 525 1532 l 406 1331 b 283 1183 333 1314 283 1256 b 450 1029 283 1094 354 1029 z m 450 1265 b 539 1183 501 1265 539 1231 b 450 1100 539 1135 501 1100 b 364 1183 400 1100 364 1135 b 450 1265 364 1231 400 1265 z m 768 0 l 892 0 l 504 972 l 397 972 l 10 0 l 133 0 l 235 263 l 668 263 z m 275 368 l 451 826 l 626 368 z "},"Ã":{"ha":901,"x_min":0,"x_max":0,"o":"m 374 1142 b 538 1086 422 1142 457 1086 b 668 1228 610 1086 663 1142 l 583 1228 b 528 1179 576 1199 556 1179 b 364 1235 479 1179 446 1235 b 233 1093 293 1235 240 1178 l 319 1093 b 374 1142 325 1122 346 1142 z m 768 0 l 892 0 l 504 972 l 397 972 l 10 0 l 133 0 l 235 263 l 668 263 z m 275 368 l 451 826 l 626 368 z "},"Æ":{"ha":1304,"x_min":0,"x_max":0,"o":"m 808 107 l 808 449 l 1138 449 l 1138 556 l 808 556 l 808 865 l 1228 865 l 1228 972 l 638 972 l 10 0 l 140 0 l 306 263 l 689 263 l 689 0 l 1243 0 l 1243 107 z m 372 369 l 689 872 l 689 369 z "},"Ǽ":{"ha":1304,"x_min":0,"x_max":0,"o":"m 1107 1254 l 978 1254 l 857 1049 l 963 1049 z m 808 107 l 808 449 l 1138 449 l 1138 556 l 808 556 l 808 865 l 1228 865 l 1228 972 l 638 972 l 10 0 l 140 0 l 306 263 l 689 263 l 689 0 l 1243 0 l 1243 107 z m 372 369 l 689 872 l 689 369 z "},"B":{"ha":849,"x_min":0,"x_max":0,"o":"m 103 0 l 472 0 b 790 283 672 0 790 108 b 618 532 790 419 718 499 b 747 722 683 560 747 632 b 450 972 747 881 635 972 l 103 972 z m 221 569 l 221 868 l 447 868 b 629 719 564 868 629 819 b 447 569 629 619 564 569 z m 221 107 l 221 464 l 453 464 b 669 285 596 464 669 401 b 453 107 669 169 596 107 z "},"C":{"ha":983,"x_min":0,"x_max":0,"o":"m 526 -11 b 936 303 742 -11 915 121 l 814 303 b 526 96 800 183 678 96 b 181 486 324 96 181 233 b 526 876 181 739 324 876 b 813 669 675 876 796 789 l 938 669 b 526 983 911 851 738 983 b 58 486 285 983 58 822 b 526 -11 58 151 283 -11 z "},"Ć":{"ha":983,"x_min":0,"x_max":0,"o":"m 461 1049 l 567 1049 l 711 1254 l 582 1254 z m 526 -11 b 936 303 742 -11 915 121 l 814 303 b 526 96 800 183 678 96 b 181 486 324 96 181 233 b 526 876 181 739 324 876 b 813 669 675 876 796 789 l 938 669 b 526 983 911 851 738 983 b 58 486 285 983 58 822 b 526 -11 58 151 283 -11 z "},"Č":{"ha":983,"x_min":0,"x_max":0,"o":"m 465 1050 l 560 1050 l 711 1244 l 607 1244 l 513 1129 l 418 1244 l 314 1244 z m 526 -11 b 936 303 742 -11 915 121 l 814 303 b 526 96 800 183 678 96 b 181 486 324 96 181 233 b 526 876 181 739 324 876 b 813 669 675 876 796 789 l 938 669 b 526 983 911 851 738 983 b 58 486 285 983 58 822 b 526 -11 58 151 283 -11 z "},"Ç":{"ha":983,"x_min":0,"x_max":0,"o":"m 526 -11 b 936 303 742 -11 915 121 l 814 303 b 526 96 800 183 678 96 b 181 486 324 96 181 233 b 526 876 181 739 324 876 b 813 669 675 876 796 789 l 938 669 b 526 983 911 851 738 983 b 58 486 285 983 58 822 b 526 -11 58 151 283 -11 z m 492 -285 l 592 -82 l 496 -82 l 346 -285 z "},"Ĉ":{"ha":983,"x_min":0,"x_max":0,"o":"m 468 1243 l 317 1049 l 419 1049 l 515 1165 l 608 1049 l 714 1049 l 561 1243 z m 526 -11 b 936 303 742 -11 915 121 l 814 303 b 526 96 800 183 678 96 b 181 486 324 96 181 233 b 526 876 181 739 324 876 b 813 669 675 876 796 789 l 938 669 b 526 983 911 851 738 983 b 58 486 285 983 58 822 b 526 -11 58 151 283 -11 z "},"Ċ":{"ha":983,"x_min":0,"x_max":0,"o":"m 450 1260 l 450 1104 l 578 1104 l 578 1260 z m 526 -11 b 936 303 742 -11 915 121 l 814 303 b 526 96 800 183 678 96 b 181 486 324 96 181 233 b 526 876 181 739 324 876 b 813 669 675 876 796 789 l 938 669 b 526 983 911 851 738 983 b 58 486 285 983 58 822 b 526 -11 58 151 283 -11 z "},"D":{"ha":932,"x_min":0,"x_max":0,"o":"m 103 0 l 389 0 b 874 486 661 0 874 176 b 389 972 874 796 661 972 l 103 972 z m 221 107 l 221 865 l 386 865 b 750 486 575 865 750 754 b 386 107 750 218 575 107 z "},"Ð":{"ha":1043,"x_min":0,"x_max":0,"o":"m 500 972 l 214 972 l 214 533 l 75 533 l 75 443 l 214 443 l 214 0 l 500 0 b 985 486 772 0 985 176 b 500 972 985 796 772 972 z m 497 107 l 332 107 l 332 443 l 592 443 l 592 533 l 332 533 l 332 865 l 497 865 b 861 486 686 865 861 754 b 497 107 861 218 686 107 z "},"Ď":{"ha":932,"x_min":0,"x_max":0,"o":"m 350 1050 l 444 1050 l 596 1244 l 492 1244 l 397 1129 l 303 1244 l 199 1244 z m 103 0 l 389 0 b 874 486 661 0 874 176 b 389 972 874 796 661 972 l 103 972 z m 221 107 l 221 865 l 386 865 b 750 486 575 865 750 754 b 386 107 750 218 575 107 z "},"Đ":{"ha":1043,"x_min":0,"x_max":0,"o":"m 500 972 l 214 972 l 214 533 l 75 533 l 75 443 l 214 443 l 214 0 l 500 0 b 985 486 772 0 985 176 b 500 972 985 796 772 972 z m 497 107 l 332 107 l 332 443 l 592 443 l 592 533 l 332 533 l 332 865 l 497 865 b 861 486 686 865 861 754 b 497 107 861 218 686 107 z "},"E":{"ha":786,"x_min":0,"x_max":0,"o":"m 103 0 l 726 0 l 726 107 l 221 107 l 221 449 l 619 449 l 619 556 l 221 556 l 221 865 l 711 865 l 711 972 l 103 972 z "},"É":{"ha":786,"x_min":0,"x_max":0,"o":"m 356 1049 l 461 1049 l 606 1254 l 476 1254 z m 103 0 l 726 0 l 726 107 l 221 107 l 221 449 l 619 449 l 619 556 l 221 556 l 221 865 l 711 865 l 711 972 l 103 972 z "},"Ĕ":{"ha":786,"x_min":0,"x_max":0,"o":"m 408 1051 b 603 1244 519 1051 603 1133 l 511 1244 b 408 1139 511 1182 467 1139 b 306 1244 349 1139 306 1182 l 213 1244 b 408 1051 213 1133 294 1051 z m 103 0 l 726 0 l 726 107 l 221 107 l 221 449 l 619 449 l 619 556 l 221 556 l 221 865 l 711 865 l 711 972 l 103 972 z "},"Ě":{"ha":786,"x_min":0,"x_max":0,"o":"m 360 1050 l 454 1050 l 606 1244 l 501 1244 l 407 1129 l 313 1244 l 208 1244 z m 103 0 l 726 0 l 726 107 l 221 107 l 221 449 l 619 449 l 619 556 l 221 556 l 221 865 l 711 865 l 711 972 l 103 972 z "},"Ê":{"ha":786,"x_min":0,"x_max":0,"o":"m 364 1243 l 213 1049 l 315 1049 l 411 1165 l 504 1049 l 610 1049 l 457 1243 z m 103 0 l 726 0 l 726 107 l 221 107 l 221 449 l 619 449 l 619 556 l 221 556 l 221 865 l 711 865 l 711 972 l 103 972 z "},"Ë":{"ha":786,"x_min":0,"x_max":0,"o":"m 239 1229 l 239 1100 l 344 1100 l 344 1229 z m 467 1229 l 467 1100 l 572 1100 l 572 1229 z m 103 0 l 726 0 l 726 107 l 221 107 l 221 449 l 619 449 l 619 556 l 221 556 l 221 865 l 711 865 l 711 972 l 103 972 z "},"Ė":{"ha":786,"x_min":0,"x_max":0,"o":"m 344 1260 l 344 1104 l 472 1104 l 472 1260 z m 103 0 l 726 0 l 726 107 l 221 107 l 221 449 l 619 449 l 619 556 l 221 556 l 221 865 l 711 865 l 711 972 l 103 972 z "},"È":{"ha":786,"x_min":0,"x_max":0,"o":"m 461 1049 l 340 1254 l 211 1254 l 356 1049 z m 103 0 l 726 0 l 726 107 l 221 107 l 221 449 l 619 449 l 619 556 l 221 556 l 221 865 l 711 865 l 711 972 l 103 972 z "},"Ē":{"ha":786,"x_min":0,"x_max":0,"o":"m 222 1093 l 592 1093 l 592 1186 l 222 1186 z m 103 0 l 726 0 l 726 107 l 221 107 l 221 449 l 619 449 l 619 556 l 221 556 l 221 865 l 711 865 l 711 972 l 103 972 z "},"Ę":{"ha":786,"x_min":0,"x_max":0,"o":"m 753 -119 b 689 -154 732 -142 714 -154 b 642 -110 660 -154 642 -137 b 725 0 642 -76 669 -46 l 726 0 l 726 107 l 221 107 l 221 449 l 619 449 l 619 556 l 221 556 l 221 865 l 711 865 l 711 972 l 103 972 l 103 0 l 638 0 b 547 -133 578 -36 547 -86 b 671 -244 547 -200 594 -244 b 800 -187 725 -244 764 -226 z "},"F":{"ha":771,"x_min":0,"x_max":0,"o":"m 103 0 l 221 0 l 221 438 l 619 438 l 619 544 l 221 544 l 221 865 l 711 865 l 711 972 l 103 972 z "},"G":{"ha":1014,"x_min":0,"x_max":0,"o":"m 525 -11 b 835 169 668 -11 789 63 l 835 0 l 944 0 l 944 333 b 772 500 944 444 843 500 l 532 500 l 532 397 l 751 397 b 828 324 799 397 828 368 b 526 93 828 183 686 93 b 179 486 326 93 179 235 b 526 876 179 739 326 876 b 821 665 676 876 799 789 l 946 665 b 528 983 924 851 750 983 b 58 486 286 983 58 818 b 525 -11 58 154 285 -11 z "},"Ğ":{"ha":1014,"x_min":0,"x_max":0,"o":"m 510 1051 b 704 1244 621 1051 704 1133 l 613 1244 b 510 1139 613 1182 568 1139 b 407 1244 450 1139 407 1182 l 314 1244 b 510 1051 314 1133 396 1051 z m 525 -11 b 835 169 668 -11 789 63 l 835 0 l 944 0 l 944 333 b 772 500 944 444 843 500 l 532 500 l 532 397 l 751 397 b 828 324 799 397 828 368 b 526 93 828 183 686 93 b 179 486 326 93 179 235 b 526 876 179 739 326 876 b 821 665 676 876 799 789 l 946 665 b 528 983 924 851 750 983 b 58 486 286 983 58 818 b 525 -11 58 154 285 -11 z "},"Ĝ":{"ha":1014,"x_min":0,"x_max":0,"o":"m 464 1243 l 313 1049 l 415 1049 l 511 1165 l 604 1049 l 710 1049 l 557 1243 z m 525 -11 b 835 169 668 -11 789 63 l 835 0 l 944 0 l 944 333 b 772 500 944 444 843 500 l 532 500 l 532 397 l 751 397 b 828 324 799 397 828 368 b 526 93 828 183 686 93 b 179 486 326 93 179 235 b 526 876 179 739 326 876 b 821 665 676 876 799 789 l 946 665 b 528 983 924 851 750 983 b 58 486 286 983 58 818 b 525 -11 58 154 285 -11 z "},"Ģ":{"ha":1014,"x_min":0,"x_max":0,"o":"m 525 -11 b 835 169 668 -11 789 63 l 835 0 l 944 0 l 944 333 b 772 500 944 444 843 500 l 532 500 l 532 397 l 751 397 b 828 324 799 397 828 368 b 526 93 828 183 686 93 b 179 486 326 93 179 235 b 526 876 179 739 326 876 b 821 665 676 876 799 789 l 946 665 b 528 983 924 851 750 983 b 58 486 286 983 58 818 b 525 -11 58 154 285 -11 z m 375 -294 l 468 -294 l 593 -94 l 440 -94 z "},"Ġ":{"ha":1014,"x_min":0,"x_max":0,"o":"m 446 1260 l 446 1104 l 574 1104 l 574 1260 z m 525 -11 b 835 169 668 -11 789 63 l 835 0 l 944 0 l 944 333 b 772 500 944 444 843 500 l 532 500 l 532 397 l 751 397 b 828 324 799 397 828 368 b 526 93 828 183 686 93 b 179 486 326 93 179 235 b 526 876 179 739 326 876 b 821 665 676 876 799 789 l 946 665 b 528 983 924 851 750 983 b 58 486 286 983 58 818 b 525 -11 58 154 285 -11 z "},"H":{"ha":957,"x_min":0,"x_max":0,"o":"m 736 972 l 736 556 l 221 556 l 221 972 l 103 972 l 103 0 l 221 0 l 221 449 l 736 449 l 736 0 l 854 0 l 854 972 z "},"Ħ":{"ha":957,"x_min":0,"x_max":0,"o":"m 950 872 l 854 872 l 854 972 l 736 972 l 736 872 l 221 872 l 221 972 l 103 972 l 103 872 l 6 872 l 6 776 l 103 776 l 103 0 l 221 0 l 221 449 l 736 449 l 736 0 l 854 0 l 854 776 l 950 776 z m 736 556 l 221 556 l 221 776 l 736 776 z "},"Ĥ":{"ha":957,"x_min":0,"x_max":0,"o":"m 481 1165 l 574 1049 l 679 1049 l 526 1243 l 433 1243 l 282 1049 l 385 1049 z m 736 972 l 736 556 l 221 556 l 221 972 l 103 972 l 103 0 l 221 0 l 221 449 l 736 449 l 736 0 l 854 0 l 854 972 z "},"I":{"ha":324,"x_min":0,"x_max":0,"o":"m 103 0 l 221 0 l 221 972 l 103 972 z "},"Ĳ":{"ha":761,"x_min":0,"x_max":0,"o":"m 103 0 l 221 0 l 221 972 l 103 972 z m 349 107 l 349 0 l 478 0 b 681 246 608 0 681 85 l 681 972 l 563 972 l 563 249 b 469 107 563 156 531 107 z "},"Í":{"ha":324,"x_min":0,"x_max":0,"o":"m 108 1049 l 214 1049 l 358 1254 l 229 1254 z m 103 0 l 221 0 l 221 972 l 103 972 z "},"Ĭ":{"ha":324,"x_min":0,"x_max":0,"o":"m 161 1051 b 356 1244 272 1051 356 1133 l 264 1244 b 161 1139 264 1182 219 1139 b 58 1244 101 1139 58 1182 l -35 1244 b 161 1051 -35 1133 47 1051 z m 103 0 l 221 0 l 221 972 l 103 972 z "},"Î":{"ha":324,"x_min":0,"x_max":0,"o":"m 117 1243 l -35 1049 l 68 1049 l 164 1165 l 257 1049 l 363 1049 l 210 1243 z m 103 0 l 221 0 l 221 972 l 103 972 z "},"Ï":{"ha":324,"x_min":0,"x_max":0,"o":"m -8 1229 l -8 1100 l 97 1100 l 97 1229 z m 219 1229 l 219 1100 l 325 1100 l 325 1229 z m 103 0 l 221 0 l 221 972 l 103 972 z "},"İ":{"ha":324,"x_min":0,"x_max":0,"o":"m 97 1260 l 97 1104 l 225 1104 l 225 1260 z m 103 0 l 221 0 l 221 972 l 103 972 z "},"Ì":{"ha":324,"x_min":0,"x_max":0,"o":"m 214 1049 l 93 1254 l -36 1254 l 108 1049 z m 103 0 l 221 0 l 221 972 l 103 972 z "},"Ī":{"ha":324,"x_min":0,"x_max":0,"o":"m -25 1093 l 344 1093 l 344 1186 l -25 1186 z m 103 0 l 221 0 l 221 972 l 103 972 z "},"Į":{"ha":324,"x_min":0,"x_max":0,"o":"m 243 -119 b 179 -154 222 -142 204 -154 b 132 -110 150 -154 132 -137 b 215 0 132 -76 160 -46 l 221 0 l 221 972 l 103 972 l 103 0 l 128 0 b 38 -133 68 -36 38 -86 b 161 -244 38 -200 85 -244 b 290 -187 215 -244 254 -226 z "},"Ĩ":{"ha":324,"x_min":0,"x_max":0,"o":"m 247 1086 b 378 1228 319 1086 372 1142 l 293 1228 b 238 1179 286 1199 265 1179 b 74 1235 189 1179 156 1235 b -57 1093 3 1235 -50 1178 l 29 1093 b 83 1142 35 1122 56 1142 b 247 1086 132 1142 167 1086 z m 103 0 l 221 0 l 221 972 l 103 972 z "},"J":{"ha":439,"x_min":0,"x_max":0,"o":"m 25 107 l 25 0 l 154 0 b 357 246 285 0 357 85 l 357 972 l 239 972 l 239 249 b 146 107 239 156 207 107 z "},"Ĵ":{"ha":439,"x_min":0,"x_max":0,"o":"m 253 1243 l 101 1049 l 204 1049 l 300 1165 l 393 1049 l 499 1049 l 346 1243 z m 25 107 l 25 0 l 154 0 b 357 246 285 0 357 85 l 357 972 l 239 972 l 239 249 b 146 107 239 156 207 107 z "},"K":{"ha":882,"x_min":0,"x_max":0,"o":"m 724 0 l 867 0 l 446 581 l 824 972 l 674 972 l 222 510 l 222 972 l 103 972 l 103 0 l 222 0 l 222 350 l 365 497 z "},"Ķ":{"ha":882,"x_min":0,"x_max":0,"o":"m 446 581 l 824 972 l 674 972 l 222 510 l 222 972 l 103 972 l 103 0 l 222 0 l 222 350 l 365 497 l 724 0 l 867 0 z m 281 -294 l 374 -294 l 499 -94 l 346 -94 z "},"L":{"ha":726,"x_min":0,"x_max":0,"o":"m 103 0 l 707 0 l 707 107 l 221 107 l 221 972 l 103 972 z "},"Ĺ":{"ha":726,"x_min":0,"x_max":0,"o":"m 128 1049 l 233 1049 l 378 1254 l 249 1254 z m 103 0 l 707 0 l 707 107 l 221 107 l 221 972 l 103 972 z "},"Ľ":{"ha":726,"x_min":0,"x_max":0,"o":"m 415 778 l 478 778 l 567 1018 l 461 1018 z m 103 0 l 707 0 l 707 107 l 221 107 l 221 972 l 103 972 z "},"Ļ":{"ha":726,"x_min":0,"x_max":0,"o":"m 103 0 l 707 0 l 707 107 l 221 107 l 221 972 l 103 972 z m 306 -294 l 399 -294 l 524 -94 l 371 -94 z "},"Ŀ":{"ha":726,"x_min":0,"x_max":0,"o":"m 103 0 l 707 0 l 707 107 l 221 107 l 221 972 l 103 972 z m 388 565 l 388 410 l 515 410 l 515 565 z "},"Ł":{"ha":726,"x_min":0,"x_max":0,"o":"m 221 107 l 221 463 l 331 490 l 331 579 l 221 551 l 221 972 l 103 972 l 103 521 l -1 494 l -1 406 l 103 432 l 103 0 l 707 0 l 707 107 z "},"M":{"ha":1154,"x_min":0,"x_max":0,"o":"m 103 0 l 218 0 l 218 775 l 525 0 l 629 0 l 936 775 l 936 0 l 1051 0 l 1051 972 l 897 972 l 578 160 l 257 972 l 103 972 z "},"N":{"ha":960,"x_min":0,"x_max":0,"o":"m 103 0 l 221 0 l 221 789 l 721 0 l 857 0 l 857 972 l 739 972 l 739 181 l 238 972 l 103 972 z "},"Ń":{"ha":960,"x_min":0,"x_max":0,"o":"m 429 1049 l 535 1049 l 679 1254 l 550 1254 z m 103 0 l 221 0 l 221 789 l 721 0 l 857 0 l 857 972 l 739 972 l 739 181 l 238 972 l 103 972 z "},"Ň":{"ha":960,"x_min":0,"x_max":0,"o":"m 433 1050 l 528 1050 l 679 1244 l 575 1244 l 481 1129 l 386 1244 l 282 1244 z m 103 0 l 221 0 l 221 789 l 721 0 l 857 0 l 857 972 l 739 972 l 739 181 l 238 972 l 103 972 z "},"Ņ":{"ha":960,"x_min":0,"x_max":0,"o":"m 103 0 l 221 0 l 221 789 l 721 0 l 857 0 l 857 972 l 739 972 l 739 181 l 238 972 l 103 972 z m 347 -294 l 440 -294 l 565 -94 l 413 -94 z "},"Ŋ":{"ha":960,"x_min":0,"x_max":0,"o":"m 739 972 l 739 188 l 238 972 l 103 972 l 103 0 l 221 0 l 221 783 l 739 -24 l 739 -35 b 646 -176 739 -128 708 -176 l 526 -176 l 526 -283 l 654 -283 b 857 -37 785 -283 857 -199 l 857 972 z "},"Ñ":{"ha":960,"x_min":0,"x_max":0,"o":"m 567 1086 b 697 1228 639 1086 692 1142 l 613 1228 b 557 1179 606 1199 585 1179 b 393 1235 508 1179 475 1235 b 263 1093 322 1235 269 1178 l 349 1093 b 403 1142 354 1122 375 1142 b 567 1086 451 1142 486 1086 z m 103 0 l 221 0 l 221 789 l 721 0 l 857 0 l 857 972 l 739 972 l 739 181 l 238 972 l 103 972 z "},"O":{"ha":1069,"x_min":0,"x_max":0,"o":"m 535 -11 b 1013 486 808 -11 1013 200 b 535 983 1013 772 808 983 b 58 486 261 983 58 772 b 535 -11 58 200 261 -11 z m 535 96 b 181 486 331 96 181 263 b 535 876 181 710 331 876 b 890 486 739 876 890 710 b 535 96 890 263 739 96 z "},"Ó":{"ha":1069,"x_min":0,"x_max":0,"o":"m 483 1049 l 589 1049 l 733 1254 l 604 1254 z m 535 -11 b 1013 486 808 -11 1013 200 b 535 983 1013 772 808 983 b 58 486 261 983 58 772 b 535 -11 58 200 261 -11 z m 535 96 b 181 486 331 96 181 263 b 535 876 181 710 331 876 b 890 486 739 876 890 710 b 535 96 890 263 739 96 z "},"Ŏ":{"ha":1069,"x_min":0,"x_max":0,"o":"m 536 1051 b 731 1244 647 1051 731 1133 l 639 1244 b 536 1139 639 1182 594 1139 b 433 1244 476 1139 433 1182 l 340 1244 b 536 1051 340 1133 422 1051 z m 535 -11 b 1013 486 808 -11 1013 200 b 535 983 1013 772 808 983 b 58 486 261 983 58 772 b 535 -11 58 200 261 -11 z m 535 96 b 181 486 331 96 181 263 b 535 876 181 710 331 876 b 890 486 739 876 890 710 b 535 96 890 263 739 96 z "},"Ô":{"ha":1069,"x_min":0,"x_max":0,"o":"m 490 1243 l 339 1049 l 442 1049 l 538 1165 l 631 1049 l 736 1049 l 583 1243 z m 535 -11 b 1013 486 808 -11 1013 200 b 535 983 1013 772 808 983 b 58 486 261 983 58 772 b 535 -11 58 200 261 -11 z m 535 96 b 181 486 331 96 181 263 b 535 876 181 710 331 876 b 890 486 739 876 890 710 b 535 96 890 263 739 96 z "},"Ö":{"ha":1069,"x_min":0,"x_max":0,"o":"m 367 1229 l 367 1100 l 472 1100 l 472 1229 z m 594 1229 l 594 1100 l 700 1100 l 700 1229 z m 535 -11 b 1013 486 808 -11 1013 200 b 535 983 1013 772 808 983 b 58 486 261 983 58 772 b 535 -11 58 200 261 -11 z m 535 96 b 181 486 331 96 181 263 b 535 876 181 710 331 876 b 890 486 739 876 890 710 b 535 96 890 263 739 96 z "},"Ò":{"ha":1069,"x_min":0,"x_max":0,"o":"m 588 1049 l 467 1254 l 338 1254 l 482 1049 z m 535 -11 b 1013 486 808 -11 1013 200 b 535 983 1013 772 808 983 b 58 486 261 983 58 772 b 535 -11 58 200 261 -11 z m 535 96 b 181 486 331 96 181 263 b 535 876 181 710 331 876 b 890 486 739 876 890 710 b 535 96 890 263 739 96 z "},"Ő":{"ha":1069,"x_min":0,"x_max":0,"o":"m 388 1049 l 493 1049 l 638 1254 l 508 1254 z m 575 1049 l 681 1049 l 825 1254 l 696 1254 z m 535 -11 b 1013 486 808 -11 1013 200 b 535 983 1013 772 808 983 b 58 486 261 983 58 772 b 535 -11 58 200 261 -11 z m 535 96 b 181 486 331 96 181 263 b 535 876 181 710 331 876 b 890 486 739 876 890 710 b 535 96 890 263 739 96 z "},"Ō":{"ha":1069,"x_min":0,"x_max":0,"o":"m 350 1093 l 719 1093 l 719 1186 l 350 1186 z m 535 -11 b 1013 486 808 -11 1013 200 b 535 983 1013 772 808 983 b 58 486 261 983 58 772 b 535 -11 58 200 261 -11 z m 535 96 b 181 486 331 96 181 263 b 535 876 181 710 331 876 b 890 486 739 876 890 710 b 535 96 890 263 739 96 z "},"Ø":{"ha":1069,"x_min":0,"x_max":0,"o":"m 535 983 b 58 486 261 983 58 772 b 535 -11 58 200 261 -11 b 1013 486 808 -11 1013 200 b 535 983 1013 772 808 983 z m 181 486 b 535 876 181 710 331 876 b 750 801 618 876 692 849 l 258 235 b 181 486 210 301 181 389 z m 535 96 b 318 171 451 96 378 124 l 811 739 b 890 486 861 672 890 585 b 535 96 890 263 739 96 z "},"Õ":{"ha":1069,"x_min":0,"x_max":0,"o":"m 621 1086 b 751 1228 693 1086 746 1142 l 667 1228 b 611 1179 660 1199 639 1179 b 447 1235 563 1179 529 1235 b 317 1093 376 1235 324 1178 l 403 1093 b 457 1142 408 1122 429 1142 b 621 1086 506 1142 540 1086 z m 535 -11 b 1013 486 808 -11 1013 200 b 535 983 1013 772 808 983 b 58 486 261 983 58 772 b 535 -11 58 200 261 -11 z m 535 96 b 181 486 331 96 181 263 b 535 876 181 710 331 876 b 890 486 739 876 890 710 b 535 96 890 263 739 96 z "},"Œ":{"ha":1396,"x_min":0,"x_max":0,"o":"m 831 107 l 831 449 l 1229 449 l 1229 556 l 831 556 l 831 865 l 1321 865 l 1321 972 l 543 972 b 58 486 271 972 58 796 b 543 0 58 176 271 0 l 1336 0 l 1336 107 z m 711 107 l 546 107 b 182 486 357 107 182 218 b 546 865 182 754 357 865 l 711 865 z "},"P":{"ha":814,"x_min":0,"x_max":0,"o":"m 103 0 l 221 0 l 221 397 l 468 397 b 778 685 661 397 778 514 b 468 972 778 856 661 972 l 103 972 z m 221 503 l 221 867 l 468 867 b 657 685 606 867 657 781 b 468 503 657 589 606 503 z "},"Þ":{"ha":814,"x_min":0,"x_max":0,"o":"m 103 0 l 221 0 l 221 213 l 468 213 b 778 486 661 213 778 315 b 468 760 778 657 661 760 l 221 760 l 221 972 l 103 972 z m 221 318 l 221 654 l 468 654 b 657 486 606 654 657 582 b 468 318 657 390 606 318 z "},"Q":{"ha":1069,"x_min":0,"x_max":0,"o":"m 1013 486 b 535 983 1013 772 808 983 b 58 486 261 983 58 772 b 482 -8 58 218 236 17 l 482 -67 b 719 -283 482 -218 561 -283 l 843 -283 l 843 -187 l 721 -187 b 590 -64 629 -187 590 -157 l 590 -8 b 1013 486 836 18 1013 219 z m 181 486 b 535 876 181 710 331 876 b 890 486 739 876 890 710 b 535 96 890 263 739 96 b 181 486 331 96 181 263 z "},"R":{"ha":897,"x_min":0,"x_max":0,"o":"m 628 461 b 781 688 719 504 781 581 b 471 972 781 857 663 972 l 103 972 l 103 0 l 221 0 l 221 396 l 485 396 b 643 235 576 396 638 329 l 660 0 l 774 0 l 757 242 b 628 461 750 340 704 419 z m 221 867 l 471 867 b 658 688 607 867 658 783 b 471 503 658 592 607 503 l 221 503 z "},"Ŕ":{"ha":897,"x_min":0,"x_max":0,"o":"m 606 1254 l 476 1254 l 356 1049 l 461 1049 z m 628 461 b 781 688 719 504 781 581 b 471 972 781 857 663 972 l 103 972 l 103 0 l 221 0 l 221 396 l 485 396 b 643 235 576 396 638 329 l 660 0 l 774 0 l 757 242 b 628 461 750 340 704 419 z m 221 867 l 471 867 b 658 688 607 867 658 783 b 471 503 658 592 607 503 l 221 503 z "},"Ř":{"ha":897,"x_min":0,"x_max":0,"o":"m 454 1050 l 606 1244 l 501 1244 l 407 1129 l 313 1244 l 208 1244 l 360 1050 z m 628 461 b 781 688 719 504 781 581 b 471 972 781 857 663 972 l 103 972 l 103 0 l 221 0 l 221 396 l 485 396 b 643 235 576 396 638 329 l 660 0 l 774 0 l 757 242 b 628 461 750 340 704 419 z m 221 867 l 471 867 b 658 688 607 867 658 783 b 471 503 658 592 607 503 l 221 503 z "},"Ŗ":{"ha":897,"x_min":0,"x_max":0,"o":"m 628 461 b 781 688 719 504 781 581 b 471 972 781 857 663 972 l 103 972 l 103 0 l 221 0 l 221 396 l 485 396 b 643 235 576 396 638 329 l 660 0 l 774 0 l 757 242 b 628 461 750 340 704 419 z m 221 867 l 471 867 b 658 688 607 867 658 783 b 471 503 658 592 607 503 l 221 503 z m 301 -294 l 394 -294 l 519 -94 l 367 -94 z "},"S":{"ha":825,"x_min":0,"x_max":0,"o":"m 418 -11 b 774 265 621 -11 774 89 b 201 725 774 631 201 476 b 411 876 201 818 279 876 b 638 696 542 876 626 806 l 754 696 b 411 983 740 871 606 983 b 82 725 217 983 82 879 b 650 265 82 378 650 515 b 418 96 650 147 553 96 b 165 318 267 96 178 183 l 49 318 b 418 -11 61 119 200 -11 z "},"Ś":{"ha":825,"x_min":0,"x_max":0,"o":"m 357 1049 l 463 1049 l 607 1254 l 478 1254 z m 418 -11 b 774 265 621 -11 774 89 b 201 725 774 631 201 476 b 411 876 201 818 279 876 b 638 696 542 876 626 806 l 754 696 b 411 983 740 871 606 983 b 82 725 217 983 82 879 b 650 265 82 378 650 515 b 418 96 650 147 553 96 b 165 318 267 96 178 183 l 49 318 b 418 -11 61 119 200 -11 z "},"Š":{"ha":825,"x_min":0,"x_max":0,"o":"m 361 1050 l 456 1050 l 607 1244 l 503 1244 l 408 1129 l 314 1244 l 210 1244 z m 418 -11 b 774 265 621 -11 774 89 b 201 725 774 631 201 476 b 411 876 201 818 279 876 b 638 696 542 876 626 806 l 754 696 b 411 983 740 871 606 983 b 82 725 217 983 82 879 b 650 265 82 378 650 515 b 418 96 650 147 553 96 b 165 318 267 96 178 183 l 49 318 b 418 -11 61 119 200 -11 z "},"Ş":{"ha":825,"x_min":0,"x_max":0,"o":"m 418 -11 b 774 265 621 -11 774 89 b 201 725 774 631 201 476 b 411 876 201 818 279 876 b 638 696 542 876 626 806 l 754 696 b 411 983 740 871 606 983 b 82 725 217 983 82 879 b 650 265 82 378 650 515 b 418 96 650 147 553 96 b 165 318 267 96 178 183 l 49 318 b 418 -11 61 119 200 -11 z m 390 -285 l 490 -82 l 394 -82 l 244 -285 z "},"Ŝ":{"ha":825,"x_min":0,"x_max":0,"o":"m 364 1243 l 213 1049 l 315 1049 l 411 1165 l 504 1049 l 610 1049 l 457 1243 z m 418 -11 b 774 265 621 -11 774 89 b 201 725 774 631 201 476 b 411 876 201 818 279 876 b 638 696 542 876 626 806 l 754 696 b 411 983 740 871 606 983 b 82 725 217 983 82 879 b 650 265 82 378 650 515 b 418 96 650 147 553 96 b 165 318 267 96 178 183 l 49 318 b 418 -11 61 119 200 -11 z "},"Ș":{"ha":825,"x_min":0,"x_max":0,"o":"m 418 -11 b 774 265 621 -11 774 89 b 201 725 774 631 201 476 b 411 876 201 818 279 876 b 638 696 542 876 626 806 l 754 696 b 411 983 740 871 606 983 b 82 725 217 983 82 879 b 650 265 82 378 650 515 b 418 96 650 147 553 96 b 165 318 267 96 178 183 l 49 318 b 418 -11 61 119 200 -11 z m 274 -294 l 367 -294 l 492 -94 l 339 -94 z "},"ẞ":{"ha":856,"x_min":0,"x_max":0,"o":"m 576 553 l 769 697 b 446 983 769 861 642 983 b 110 631 240 983 110 846 l 110 569 l 17 569 l 17 464 l 110 464 l 110 0 l 228 0 l 228 629 b 446 879 228 781 313 879 b 647 722 565 879 638 819 l 431 560 l 431 464 l 460 464 b 676 285 603 464 676 401 b 460 107 676 169 603 107 l 344 107 l 344 0 l 479 0 b 797 283 679 0 797 108 b 576 553 797 419 742 513 z "},"Ə":{"ha":1025,"x_min":0,"x_max":0,"o":"m 494 982 b 58 661 256 982 89 854 l 179 661 b 494 878 211 796 324 878 b 849 494 689 878 842 713 l 74 494 b 69 431 72 483 69 447 b 513 -15 69 163 250 -15 b 967 475 782 -15 967 181 b 494 982 967 764 768 982 z m 513 86 b 189 397 321 86 190 218 l 843 397 b 513 86 815 203 692 86 z "},"T":{"ha":774,"x_min":0,"x_max":0,"o":"m 328 0 l 447 0 l 447 865 l 757 865 l 757 972 l 17 972 l 17 865 l 328 865 z "},"Ŧ":{"ha":774,"x_min":0,"x_max":0,"o":"m 757 865 l 757 972 l 17 972 l 17 865 l 328 865 l 328 531 l 128 531 l 128 440 l 328 440 l 328 0 l 447 0 l 447 440 l 644 440 l 644 531 l 447 531 l 447 865 z "},"Ť":{"ha":774,"x_min":0,"x_max":0,"o":"m 339 1050 l 433 1050 l 585 1244 l 481 1244 l 386 1129 l 292 1244 l 188 1244 z m 328 0 l 447 0 l 447 865 l 757 865 l 757 972 l 17 972 l 17 865 l 328 865 z "},"Ţ":{"ha":774,"x_min":0,"x_max":0,"o":"m 328 0 l 447 0 l 447 865 l 757 865 l 757 972 l 17 972 l 17 865 l 328 865 z m 369 -285 l 469 -82 l 374 -82 l 224 -285 z "},"Ț":{"ha":774,"x_min":0,"x_max":0,"o":"m 328 0 l 447 0 l 447 865 l 757 865 l 757 972 l 17 972 l 17 865 l 328 865 z m 253 -294 l 346 -294 l 471 -94 l 318 -94 z "},"U":{"ha":906,"x_min":0,"x_max":0,"o":"m 453 -11 b 819 333 674 -11 819 121 l 819 972 l 704 972 l 704 328 b 453 96 704 185 604 96 b 203 328 303 96 203 185 l 203 972 l 86 972 l 86 333 b 453 -11 86 121 232 -11 z "},"Ú":{"ha":906,"x_min":0,"x_max":0,"o":"m 401 1049 l 507 1049 l 651 1254 l 522 1254 z m 453 -11 b 819 333 674 -11 819 121 l 819 972 l 704 972 l 704 328 b 453 96 704 185 604 96 b 203 328 303 96 203 185 l 203 972 l 86 972 l 86 333 b 453 -11 86 121 232 -11 z "},"Ŭ":{"ha":906,"x_min":0,"x_max":0,"o":"m 454 1051 b 649 1244 565 1051 649 1133 l 557 1244 b 454 1139 557 1182 513 1139 b 351 1244 394 1139 351 1182 l 258 1244 b 454 1051 258 1133 340 1051 z m 453 -11 b 819 333 674 -11 819 121 l 819 972 l 704 972 l 704 328 b 453 96 704 185 604 96 b 203 328 303 96 203 185 l 203 972 l 86 972 l 86 333 b 453 -11 86 121 232 -11 z "},"Û":{"ha":906,"x_min":0,"x_max":0,"o":"m 408 1243 l 257 1049 l 360 1049 l 456 1165 l 549 1049 l 654 1049 l 501 1243 z m 453 -11 b 819 333 674 -11 819 121 l 819 972 l 704 972 l 704 328 b 453 96 704 185 604 96 b 203 328 303 96 203 185 l 203 972 l 86 972 l 86 333 b 453 -11 86 121 232 -11 z "},"Ü":{"ha":906,"x_min":0,"x_max":0,"o":"m 285 1229 l 285 1100 l 390 1100 l 390 1229 z m 513 1229 l 513 1100 l 618 1100 l 618 1229 z m 453 -11 b 819 333 674 -11 819 121 l 819 972 l 704 972 l 704 328 b 453 96 704 185 604 96 b 203 328 303 96 203 185 l 203 972 l 86 972 l 86 333 b 453 -11 86 121 232 -11 z "},"Ù":{"ha":906,"x_min":0,"x_max":0,"o":"m 506 1049 l 385 1254 l 256 1254 l 400 1049 z m 453 -11 b 819 333 674 -11 819 121 l 819 972 l 704 972 l 704 328 b 453 96 704 185 604 96 b 203 328 303 96 203 185 l 203 972 l 86 972 l 86 333 b 453 -11 86 121 232 -11 z "},"Ű":{"ha":906,"x_min":0,"x_max":0,"o":"m 306 1049 l 411 1049 l 556 1254 l 426 1254 z m 493 1049 l 599 1049 l 743 1254 l 614 1254 z m 453 -11 b 819 333 674 -11 819 121 l 819 972 l 704 972 l 704 328 b 453 96 704 185 604 96 b 203 328 303 96 203 185 l 203 972 l 86 972 l 86 333 b 453 -11 86 121 232 -11 z "},"Ū":{"ha":906,"x_min":0,"x_max":0,"o":"m 268 1093 l 638 1093 l 638 1186 l 268 1186 z m 453 -11 b 819 333 674 -11 819 121 l 819 972 l 704 972 l 704 328 b 453 96 704 185 604 96 b 203 328 303 96 203 185 l 203 972 l 86 972 l 86 333 b 453 -11 86 121 232 -11 z "},"Ų":{"ha":906,"x_min":0,"x_max":0,"o":"m 704 972 l 704 328 b 453 96 704 185 604 96 b 203 328 303 96 203 185 l 203 972 l 86 972 l 86 333 b 413 -10 86 133 215 6 b 338 -133 363 -44 338 -90 b 461 -244 338 -200 385 -244 b 590 -187 515 -244 554 -226 l 543 -119 b 479 -154 522 -142 504 -154 b 432 -110 450 -154 432 -137 b 506 -8 432 -79 457 -50 b 819 333 696 11 819 138 l 819 972 z "},"Ů":{"ha":906,"x_min":0,"x_max":0,"o":"m 451 1029 b 619 1183 547 1029 619 1094 b 451 1335 619 1269 547 1335 b 285 1183 356 1335 285 1269 b 451 1029 285 1094 356 1029 z m 451 1100 b 365 1183 401 1100 365 1135 b 451 1265 365 1231 401 1265 b 540 1183 503 1265 540 1231 b 451 1100 540 1135 503 1100 z m 453 -11 b 819 333 674 -11 819 121 l 819 972 l 704 972 l 704 328 b 453 96 704 185 604 96 b 203 328 303 96 203 185 l 203 972 l 86 972 l 86 333 b 453 -11 86 121 232 -11 z "},"Ũ":{"ha":906,"x_min":0,"x_max":0,"o":"m 539 1086 b 669 1228 611 1086 664 1142 l 585 1228 b 529 1179 578 1199 557 1179 b 365 1235 481 1179 447 1235 b 235 1093 294 1235 242 1178 l 321 1093 b 375 1142 326 1122 347 1142 b 539 1086 424 1142 458 1086 z m 453 -11 b 819 333 674 -11 819 121 l 819 972 l 704 972 l 704 328 b 453 96 704 185 604 96 b 203 328 303 96 203 185 l 203 972 l 86 972 l 86 333 b 453 -11 86 121 232 -11 z "},"V":{"ha":876,"x_min":0,"x_max":0,"o":"m 378 0 l 499 0 l 867 972 l 746 972 l 438 138 l 132 972 l 10 972 z "},"W":{"ha":1383,"x_min":0,"x_max":0,"o":"m 332 0 l 450 0 l 692 790 l 932 0 l 1054 0 l 1351 972 l 1231 972 l 989 179 l 744 972 l 639 972 l 393 179 l 154 972 l 31 972 z "},"Ẃ":{"ha":1383,"x_min":0,"x_max":0,"o":"m 642 1049 l 747 1049 l 892 1254 l 763 1254 z m 332 0 l 450 0 l 692 790 l 932 0 l 1054 0 l 1351 972 l 1231 972 l 989 179 l 744 972 l 639 972 l 393 179 l 154 972 l 31 972 z "},"Ŵ":{"ha":1383,"x_min":0,"x_max":0,"o":"m 649 1243 l 497 1049 l 600 1049 l 696 1165 l 789 1049 l 894 1049 l 742 1243 z m 332 0 l 450 0 l 692 790 l 932 0 l 1054 0 l 1351 972 l 1231 972 l 989 179 l 744 972 l 639 972 l 393 179 l 154 972 l 31 972 z "},"Ẅ":{"ha":1383,"x_min":0,"x_max":0,"o":"m 525 1229 l 525 1100 l 631 1100 l 631 1229 z m 753 1229 l 753 1100 l 858 1100 l 858 1229 z m 332 0 l 450 0 l 692 790 l 932 0 l 1054 0 l 1351 972 l 1231 972 l 989 179 l 744 972 l 639 972 l 393 179 l 154 972 l 31 972 z "},"Ẁ":{"ha":1383,"x_min":0,"x_max":0,"o":"m 746 1049 l 625 1254 l 496 1254 l 640 1049 z m 332 0 l 450 0 l 692 790 l 932 0 l 1054 0 l 1351 972 l 1231 972 l 989 179 l 744 972 l 639 972 l 393 179 l 154 972 l 31 972 z "},"X":{"ha":840,"x_min":0,"x_max":0,"o":"m 794 0 l 482 492 l 788 972 l 663 972 l 421 590 l 178 972 l 54 972 l 358 493 l 46 0 l 169 0 l 421 394 l 671 0 z "},"Y":{"ha":819,"x_min":0,"x_max":0,"o":"m 350 0 l 468 0 l 468 407 l 813 972 l 678 972 l 410 521 l 140 972 l 6 972 l 350 407 z "},"Ý":{"ha":819,"x_min":0,"x_max":0,"o":"m 357 1049 l 463 1049 l 607 1254 l 478 1254 z m 350 0 l 468 0 l 468 407 l 813 972 l 678 972 l 410 521 l 140 972 l 6 972 l 350 407 z "},"Ŷ":{"ha":819,"x_min":0,"x_max":0,"o":"m 365 1243 l 214 1049 l 317 1049 l 413 1165 l 506 1049 l 611 1049 l 458 1243 z m 350 0 l 468 0 l 468 407 l 813 972 l 678 972 l 410 521 l 140 972 l 6 972 l 350 407 z "},"Ÿ":{"ha":819,"x_min":0,"x_max":0,"o":"m 240 1229 l 240 1100 l 346 1100 l 346 1229 z m 468 1229 l 468 1100 l 574 1100 l 574 1229 z m 350 0 l 468 0 l 468 407 l 813 972 l 678 972 l 410 521 l 140 972 l 6 972 l 350 407 z "},"Ỳ":{"ha":819,"x_min":0,"x_max":0,"o":"m 463 1049 l 342 1254 l 213 1254 l 357 1049 z m 350 0 l 468 0 l 468 407 l 813 972 l 678 972 l 410 521 l 140 972 l 6 972 l 350 407 z "},"Z":{"ha":829,"x_min":0,"x_max":0,"o":"m 46 0 l 778 0 l 778 107 l 193 107 l 776 865 l 776 972 l 78 972 l 78 865 l 640 865 l 46 107 z "},"Ź":{"ha":829,"x_min":0,"x_max":0,"o":"m 357 1049 l 463 1049 l 607 1254 l 478 1254 z m 46 0 l 778 0 l 778 107 l 193 107 l 776 865 l 776 972 l 78 972 l 78 865 l 640 865 l 46 107 z "},"Ž":{"ha":829,"x_min":0,"x_max":0,"o":"m 361 1050 l 456 1050 l 607 1244 l 503 1244 l 408 1129 l 314 1244 l 210 1244 z m 46 0 l 778 0 l 778 107 l 193 107 l 776 865 l 776 972 l 78 972 l 78 865 l 640 865 l 46 107 z "},"Ż":{"ha":829,"x_min":0,"x_max":0,"o":"m 346 1260 l 346 1104 l 474 1104 l 474 1260 z m 46 0 l 778 0 l 778 107 l 193 107 l 776 865 l 776 972 l 78 972 l 78 865 l 640 865 l 46 107 z "},"a":{"ha":731,"x_min":0,"x_max":0,"o":"m 363 711 b 65 476 206 711 78 611 l 171 476 b 360 617 176 553 257 617 b 547 456 479 617 547 551 b 503 418 547 433 533 418 l 344 418 b 65 200 175 418 65 333 b 308 -11 65 72 161 -11 b 547 121 417 -11 510 40 l 547 0 l 658 0 l 658 451 b 363 711 658 607 544 711 z m 325 83 b 179 201 236 83 179 129 b 351 333 179 283 247 333 l 547 333 l 547 315 b 325 83 547 171 465 83 z "},"á":{"ha":731,"x_min":0,"x_max":0,"o":"m 569 982 l 440 982 l 319 776 l 425 776 z m 363 711 b 65 476 206 711 78 611 l 171 476 b 360 617 176 553 257 617 b 547 456 479 617 547 551 b 503 418 547 433 533 418 l 344 418 b 65 200 175 418 65 333 b 308 -11 65 72 161 -11 b 547 121 417 -11 510 40 l 547 0 l 658 0 l 658 451 b 363 711 658 607 544 711 z m 325 83 b 179 201 236 83 179 129 b 351 333 179 283 247 333 l 547 333 l 547 315 b 325 83 547 171 465 83 z "},"ă":{"ha":731,"x_min":0,"x_max":0,"o":"m 372 779 b 567 972 483 779 567 861 l 475 972 b 372 867 475 910 431 867 b 269 972 313 867 269 910 l 176 972 b 372 779 176 861 258 779 z m 363 711 b 65 476 206 711 78 611 l 171 476 b 360 617 176 553 257 617 b 547 456 479 617 547 551 b 503 418 547 433 533 418 l 344 418 b 65 200 175 418 65 333 b 308 -11 65 72 161 -11 b 547 121 417 -11 510 40 l 547 0 l 658 0 l 658 451 b 363 711 658 607 544 711 z m 325 83 b 179 201 236 83 179 129 b 351 333 179 283 247 333 l 547 333 l 547 315 b 325 83 547 171 465 83 z "},"â":{"ha":731,"x_min":0,"x_max":0,"o":"m 375 893 l 468 776 l 574 776 l 421 971 l 328 971 l 176 776 l 279 776 z m 363 711 b 65 476 206 711 78 611 l 171 476 b 360 617 176 553 257 617 b 547 456 479 617 547 551 b 503 418 547 433 533 418 l 344 418 b 65 200 175 418 65 333 b 308 -11 65 72 161 -11 b 547 121 417 -11 510 40 l 547 0 l 658 0 l 658 451 b 363 711 658 607 544 711 z m 325 83 b 179 201 236 83 179 129 b 351 333 179 283 247 333 l 547 333 l 547 315 b 325 83 547 171 465 83 z "},"ä":{"ha":731,"x_min":0,"x_max":0,"o":"m 308 957 l 203 957 l 203 828 l 308 828 z m 536 957 l 431 957 l 431 828 l 536 828 z m 363 711 b 65 476 206 711 78 611 l 171 476 b 360 617 176 553 257 617 b 547 456 479 617 547 551 b 503 418 547 433 533 418 l 344 418 b 65 200 175 418 65 333 b 308 -11 65 72 161 -11 b 547 121 417 -11 510 40 l 547 0 l 658 0 l 658 451 b 363 711 658 607 544 711 z m 325 83 b 179 201 236 83 179 129 b 351 333 179 283 247 333 l 547 333 l 547 315 b 325 83 547 171 465 83 z "},"à":{"ha":731,"x_min":0,"x_max":0,"o":"m 425 776 l 304 982 l 175 982 l 319 776 z m 363 711 b 65 476 206 711 78 611 l 171 476 b 360 617 176 553 257 617 b 547 456 479 617 547 551 b 503 418 547 433 533 418 l 344 418 b 65 200 175 418 65 333 b 308 -11 65 72 161 -11 b 547 121 417 -11 510 40 l 547 0 l 658 0 l 658 451 b 363 711 658 607 544 711 z m 325 83 b 179 201 236 83 179 129 b 351 333 179 283 247 333 l 547 333 l 547 315 b 325 83 547 171 465 83 z "},"ā":{"ha":731,"x_min":0,"x_max":0,"o":"m 557 914 l 188 914 l 188 821 l 557 821 z m 363 711 b 65 476 206 711 78 611 l 171 476 b 360 617 176 553 257 617 b 547 456 479 617 547 551 b 503 418 547 433 533 418 l 344 418 b 65 200 175 418 65 333 b 308 -11 65 72 161 -11 b 547 121 417 -11 510 40 l 547 0 l 658 0 l 658 451 b 363 711 658 607 544 711 z m 325 83 b 179 201 236 83 179 129 b 351 333 179 283 247 333 l 547 333 l 547 315 b 325 83 547 171 465 83 z "},"ą":{"ha":731,"x_min":0,"x_max":0,"o":"m 686 -119 b 622 -154 665 -142 647 -154 b 575 -110 593 -154 575 -137 b 658 0 575 -76 603 -46 l 658 451 b 363 711 658 607 544 711 b 65 476 206 711 78 611 l 171 476 b 360 617 176 553 257 617 b 547 456 479 617 547 551 b 503 418 547 433 533 418 l 344 418 b 65 200 175 418 65 333 b 308 -11 65 72 161 -11 b 547 121 417 -11 510 40 l 547 0 l 571 0 b 481 -133 511 -36 481 -86 b 604 -244 481 -200 528 -244 b 733 -187 658 -244 697 -226 z m 325 83 b 179 201 236 83 179 129 b 351 333 179 283 247 333 l 547 333 l 547 315 b 325 83 547 171 465 83 z "},"å":{"ha":731,"x_min":0,"x_max":0,"o":"m 371 757 b 539 911 467 757 539 822 b 371 1063 539 997 467 1063 b 204 911 275 1063 204 997 b 371 757 204 822 275 757 z m 371 993 b 460 911 422 993 460 958 b 371 828 460 863 422 828 b 285 911 321 828 285 863 b 371 993 285 958 321 993 z m 363 711 b 65 476 206 711 78 611 l 171 476 b 360 617 176 553 257 617 b 547 456 479 617 547 551 b 503 418 547 433 533 418 l 344 418 b 65 200 175 418 65 333 b 308 -11 65 72 161 -11 b 547 121 417 -11 510 40 l 547 0 l 658 0 l 658 451 b 363 711 658 607 544 711 z m 325 83 b 179 201 236 83 179 129 b 351 333 179 283 247 333 l 547 333 l 547 315 b 325 83 547 171 465 83 z "},"ǻ":{"ha":731,"x_min":0,"x_max":0,"o":"m 371 757 b 539 911 467 757 539 822 b 428 1054 539 979 494 1033 l 429 1054 l 574 1260 l 444 1260 l 325 1057 b 204 911 254 1040 204 983 b 371 757 204 822 275 757 z m 371 993 b 460 911 422 993 460 958 b 371 828 460 863 422 828 b 285 911 321 828 285 863 b 371 993 285 958 321 993 z m 363 711 b 65 476 206 711 78 611 l 171 476 b 360 617 176 553 257 617 b 547 456 479 617 547 551 b 503 418 547 433 533 418 l 344 418 b 65 200 175 418 65 333 b 308 -11 65 72 161 -11 b 547 121 417 -11 510 40 l 547 0 l 658 0 l 658 451 b 363 711 658 607 544 711 z m 325 83 b 179 201 236 83 179 129 b 351 333 179 283 247 333 l 547 333 l 547 315 b 325 83 547 171 465 83 z "},"ã":{"ha":731,"x_min":0,"x_max":0,"o":"m 294 869 b 458 814 343 869 378 814 b 589 956 531 814 583 869 l 504 956 b 449 907 497 926 476 907 b 285 963 400 907 367 963 b 154 821 214 963 161 906 l 240 821 b 294 869 246 850 267 869 z m 363 711 b 65 476 206 711 78 611 l 171 476 b 360 617 176 553 257 617 b 547 456 479 617 547 551 b 503 418 547 433 533 418 l 344 418 b 65 200 175 418 65 333 b 308 -11 65 72 161 -11 b 547 121 417 -11 510 40 l 547 0 l 658 0 l 658 451 b 363 711 658 607 544 711 z m 325 83 b 179 201 236 83 179 129 b 351 333 179 283 247 333 l 547 333 l 547 315 b 325 83 547 171 465 83 z "},"æ":{"ha":1265,"x_min":0,"x_max":0,"o":"m 1101 225 b 893 88 1079 138 1007 88 b 657 335 761 88 665 190 l 1204 335 b 1207 383 1206 344 1207 368 b 881 711 1207 569 1085 711 b 618 588 767 711 676 664 b 356 711 568 664 471 711 b 65 475 203 711 78 611 l 169 475 b 357 617 176 551 253 617 b 547 461 463 617 547 557 l 547 460 b 507 424 547 438 533 424 l 344 424 b 65 199 157 424 65 342 b 315 -11 65 78 163 -11 b 601 151 457 -11 550 46 b 893 -11 660 54 763 -11 b 1214 225 1067 -11 1190 82 z m 881 617 b 1093 424 1006 617 1085 542 l 663 424 b 881 617 683 547 763 617 z m 324 83 b 179 200 240 83 179 132 b 351 340 179 290 229 340 l 547 340 l 547 315 b 324 83 547 171 464 83 z "},"ǽ":{"ha":1201,"x_min":0,"x_max":0,"o":"m 807 982 l 678 982 l 557 776 l 663 776 z m 1101 225 b 893 88 1079 138 1007 88 b 657 335 761 88 665 190 l 1204 335 b 1207 383 1206 344 1207 368 b 881 711 1207 569 1085 711 b 618 588 767 711 676 664 b 356 711 568 664 471 711 b 65 475 203 711 78 611 l 169 475 b 357 617 176 551 253 617 b 547 461 463 617 547 557 l 547 460 b 507 424 547 438 533 424 l 344 424 b 65 199 157 424 65 342 b 315 -11 65 78 163 -11 b 601 151 457 -11 550 46 b 893 -11 660 54 763 -11 b 1214 225 1067 -11 1190 82 z m 881 617 b 1093 424 1006 617 1085 542 l 663 424 b 881 617 683 547 763 617 z m 324 83 b 179 200 240 83 179 132 b 351 340 179 290 229 340 l 547 340 l 547 315 b 324 83 547 171 464 83 z "},"b":{"ha":829,"x_min":0,"x_max":0,"o":"m 440 -11 b 778 350 658 -11 778 146 b 440 711 778 554 658 711 b 208 586 342 711 251 661 l 208 988 l 97 988 l 97 0 l 208 0 l 208 115 b 440 -11 251 39 343 -11 z m 431 89 b 199 350 290 89 199 192 b 431 611 199 508 290 611 b 664 350 572 611 664 508 b 431 89 664 192 572 89 z "},"c":{"ha":754,"x_min":0,"x_max":0,"o":"m 392 -11 b 708 226 569 -11 685 83 l 600 226 b 393 89 575 142 499 89 b 167 350 242 89 167 207 b 393 611 167 493 240 611 b 600 464 499 611 586 549 l 710 464 b 392 711 689 619 549 711 b 51 350 171 711 51 538 b 392 -11 51 163 171 -11 z "},"ć":{"ha":754,"x_min":0,"x_max":0,"o":"m 338 776 l 443 776 l 588 982 l 458 982 z m 392 -11 b 708 226 569 -11 685 83 l 600 226 b 393 89 575 142 499 89 b 167 350 242 89 167 207 b 393 611 167 493 240 611 b 600 464 499 611 586 549 l 710 464 b 392 711 689 619 549 711 b 51 350 171 711 51 538 b 392 -11 51 163 171 -11 z "},"č":{"ha":754,"x_min":0,"x_max":0,"o":"m 342 778 l 436 778 l 588 972 l 483 972 l 389 857 l 294 972 l 190 972 z m 392 -11 b 708 226 569 -11 685 83 l 600 226 b 393 89 575 142 499 89 b 167 350 242 89 167 207 b 393 611 167 493 240 611 b 600 464 499 611 586 549 l 710 464 b 392 711 689 619 549 711 b 51 350 171 711 51 538 b 392 -11 51 163 171 -11 z "},"ç":{"ha":754,"x_min":0,"x_max":0,"o":"m 392 -11 b 708 226 569 -11 685 83 l 600 226 b 393 89 575 142 499 89 b 167 350 242 89 167 207 b 393 611 167 493 240 611 b 600 464 499 611 586 549 l 710 464 b 392 711 689 619 549 711 b 51 350 171 711 51 538 b 392 -11 51 163 171 -11 z m 353 -285 l 453 -82 l 357 -82 l 207 -285 z "},"ĉ":{"ha":754,"x_min":0,"x_max":0,"o":"m 344 971 l 193 776 l 296 776 l 392 893 l 485 776 l 590 776 l 438 971 z m 392 -11 b 708 226 569 -11 685 83 l 600 226 b 393 89 575 142 499 89 b 167 350 242 89 167 207 b 393 611 167 493 240 611 b 600 464 499 611 586 549 l 710 464 b 392 711 689 619 549 711 b 51 350 171 711 51 538 b 392 -11 51 163 171 -11 z "},"ċ":{"ha":754,"x_min":0,"x_max":0,"o":"m 326 988 l 326 832 l 454 832 l 454 988 z m 392 -11 b 708 226 569 -11 685 83 l 600 226 b 393 89 575 142 499 89 b 167 350 242 89 167 207 b 393 611 167 493 240 611 b 600 464 499 611 586 549 l 710 464 b 392 711 689 619 549 711 b 51 350 171 711 51 538 b 392 -11 51 163 171 -11 z "},"d":{"ha":829,"x_min":0,"x_max":0,"o":"m 389 -11 b 621 115 488 -11 579 39 l 621 0 l 732 0 l 732 988 l 621 988 l 621 586 b 389 711 579 661 488 711 b 51 350 171 711 51 554 b 389 -11 51 146 171 -11 z m 399 89 b 165 350 258 89 165 192 b 399 611 165 508 258 611 b 631 350 539 611 631 508 b 399 89 631 192 539 89 z "},"ð":{"ha":786,"x_min":0,"x_max":0,"o":"m 461 871 l 536 931 l 482 993 l 392 921 b 300 979 363 940 332 960 l 154 979 b 322 864 217 940 272 901 l 239 797 l 293 736 l 389 813 b 576 607 488 731 551 657 b 388 672 532 647 460 672 b 54 331 183 672 54 508 b 393 -11 54 154 176 -11 b 732 338 610 -11 732 156 b 461 871 732 597 617 751 z m 393 88 b 168 331 240 88 168 207 b 393 575 168 454 240 575 b 618 331 547 575 618 454 b 393 88 618 207 547 88 z "},"ď":{"ha":933,"x_min":0,"x_max":0,"o":"m 786 778 l 849 778 l 938 1018 l 832 1018 z m 389 -11 b 621 115 488 -11 579 39 l 621 0 l 732 0 l 732 988 l 621 988 l 621 586 b 389 711 579 661 488 711 b 51 350 171 711 51 554 b 389 -11 51 146 171 -11 z m 399 89 b 165 350 258 89 165 192 b 399 611 165 508 258 611 b 631 350 539 611 631 508 b 399 89 631 192 539 89 z "},"đ":{"ha":829,"x_min":0,"x_max":0,"o":"m 868 867 l 732 867 l 732 988 l 621 988 l 621 867 l 350 867 l 350 779 l 621 779 l 621 586 b 389 711 579 661 488 711 b 51 350 171 711 51 554 b 389 -11 51 146 171 -11 b 621 115 488 -11 579 39 l 621 0 l 732 0 l 732 779 l 868 779 z m 399 89 b 165 350 258 89 165 192 b 399 611 165 508 258 611 b 631 350 539 611 631 508 b 399 89 631 192 539 89 z "},"e":{"ha":769,"x_min":0,"x_max":0,"o":"m 606 225 b 397 88 583 138 511 88 b 161 335 265 88 169 190 l 708 335 b 711 383 710 344 711 368 b 385 711 711 569 589 711 b 51 354 179 711 51 560 b 397 -11 51 154 190 -11 b 718 225 571 -11 694 82 z m 385 617 b 597 424 510 617 589 542 l 167 424 b 385 617 188 547 267 617 z "},"é":{"ha":769,"x_min":0,"x_max":0,"o":"m 583 982 l 454 982 l 333 776 l 439 776 z m 606 225 b 397 88 583 138 511 88 b 161 335 265 88 169 190 l 708 335 b 711 383 710 344 711 368 b 385 711 711 569 589 711 b 51 354 179 711 51 560 b 397 -11 51 154 190 -11 b 718 225 571 -11 694 82 z m 385 617 b 597 424 510 617 589 542 l 167 424 b 385 617 188 547 267 617 z "},"ĕ":{"ha":769,"x_min":0,"x_max":0,"o":"m 386 779 b 581 972 497 779 581 861 l 489 972 b 386 867 489 910 444 867 b 283 972 326 867 283 910 l 190 972 b 386 779 190 861 272 779 z m 606 225 b 397 88 583 138 511 88 b 161 335 265 88 169 190 l 708 335 b 711 383 710 344 711 368 b 385 711 711 569 589 711 b 51 354 179 711 51 560 b 397 -11 51 154 190 -11 b 718 225 571 -11 694 82 z m 385 617 b 597 424 510 617 589 542 l 167 424 b 385 617 188 547 267 617 z "},"ě":{"ha":769,"x_min":0,"x_max":0,"o":"m 432 778 l 583 972 l 479 972 l 385 857 l 290 972 l 186 972 l 338 778 z m 606 225 b 397 88 583 138 511 88 b 161 335 265 88 169 190 l 708 335 b 711 383 710 344 711 368 b 385 711 711 569 589 711 b 51 354 179 711 51 560 b 397 -11 51 154 190 -11 b 718 225 571 -11 694 82 z m 385 617 b 597 424 510 617 589 542 l 167 424 b 385 617 188 547 267 617 z "},"ê":{"ha":769,"x_min":0,"x_max":0,"o":"m 388 893 l 481 776 l 586 776 l 433 971 l 340 971 l 189 776 l 292 776 z m 606 225 b 397 88 583 138 511 88 b 161 335 265 88 169 190 l 708 335 b 711 383 710 344 711 368 b 385 711 711 569 589 711 b 51 354 179 711 51 560 b 397 -11 51 154 190 -11 b 718 225 571 -11 694 82 z m 385 617 b 597 424 510 617 589 542 l 167 424 b 385 617 188 547 267 617 z "},"ë":{"ha":769,"x_min":0,"x_max":0,"o":"m 322 957 l 217 957 l 217 828 l 322 828 z m 550 957 l 444 957 l 444 828 l 550 828 z m 606 225 b 397 88 583 138 511 88 b 161 335 265 88 169 190 l 708 335 b 711 383 710 344 711 368 b 385 711 711 569 589 711 b 51 354 179 711 51 560 b 397 -11 51 154 190 -11 b 718 225 571 -11 694 82 z m 385 617 b 597 424 510 617 589 542 l 167 424 b 385 617 188 547 267 617 z "},"ė":{"ha":769,"x_min":0,"x_max":0,"o":"m 450 988 l 322 988 l 322 832 l 450 832 z m 606 225 b 397 88 583 138 511 88 b 161 335 265 88 169 190 l 708 335 b 711 383 710 344 711 368 b 385 711 711 569 589 711 b 51 354 179 711 51 560 b 397 -11 51 154 190 -11 b 718 225 571 -11 694 82 z m 385 617 b 597 424 510 617 589 542 l 167 424 b 385 617 188 547 267 617 z "},"è":{"ha":769,"x_min":0,"x_max":0,"o":"m 438 776 l 317 982 l 188 982 l 332 776 z m 606 225 b 397 88 583 138 511 88 b 161 335 265 88 169 190 l 708 335 b 711 383 710 344 711 368 b 385 711 711 569 589 711 b 51 354 179 711 51 560 b 397 -11 51 154 190 -11 b 718 225 571 -11 694 82 z m 385 617 b 597 424 510 617 589 542 l 167 424 b 385 617 188 547 267 617 z "},"ē":{"ha":769,"x_min":0,"x_max":0,"o":"m 569 914 l 200 914 l 200 821 l 569 821 z m 606 225 b 397 88 583 138 511 88 b 161 335 265 88 169 190 l 708 335 b 711 383 710 344 711 368 b 385 711 711 569 589 711 b 51 354 179 711 51 560 b 397 -11 51 154 190 -11 b 718 225 571 -11 694 82 z m 385 617 b 597 424 510 617 589 542 l 167 424 b 385 617 188 547 267 617 z "},"ę":{"ha":769,"x_min":0,"x_max":0,"o":"m 482 -3 b 718 225 611 22 699 107 l 606 225 b 397 88 583 138 511 88 b 161 335 265 88 169 190 l 708 335 b 711 383 710 344 711 368 b 385 711 711 569 589 711 b 51 354 179 711 51 560 b 382 -11 51 160 183 -3 b 308 -133 333 -46 308 -90 b 432 -244 308 -200 356 -244 b 561 -187 486 -244 525 -226 l 514 -119 b 450 -154 493 -142 475 -154 b 403 -110 421 -154 403 -137 b 482 -3 403 -78 429 -47 z m 385 617 b 597 424 510 617 589 542 l 167 424 b 385 617 188 547 267 617 z "},"ə":{"ha":769,"x_min":0,"x_max":0,"o":"m 371 711 b 51 475 197 711 74 618 l 164 475 b 371 614 186 564 258 614 b 608 367 501 614 600 511 l 61 367 b 58 317 60 356 58 332 b 383 -11 58 131 181 -11 b 718 346 590 -11 718 140 b 371 711 718 547 579 711 z m 383 83 b 172 276 260 83 181 158 l 603 276 b 383 83 582 153 503 83 z "},"f":{"ha":526,"x_min":0,"x_max":0,"o":"m 168 0 l 279 0 l 279 601 l 497 601 l 497 700 l 279 700 l 279 769 b 392 889 279 844 324 889 l 497 889 l 497 988 l 386 988 b 168 771 253 988 168 904 l 168 700 l 22 700 l 22 601 l 168 601 z "},"g":{"ha":835,"x_min":0,"x_max":0,"o":"m 626 700 l 626 597 b 394 711 583 664 489 711 b 57 350 176 711 57 554 b 394 -11 57 146 176 -11 b 626 97 500 -11 593 32 l 626 -26 b 472 -187 626 -119 563 -187 l 149 -187 l 149 -283 l 479 -283 b 738 -31 631 -283 738 -179 l 738 700 z m 404 89 b 171 350 263 89 171 192 b 404 611 171 508 263 611 b 636 350 544 611 636 508 b 404 89 636 192 544 89 z "},"ğ":{"ha":835,"x_min":0,"x_max":0,"o":"m 411 779 b 606 972 522 779 606 861 l 514 972 b 411 867 514 910 469 867 b 308 972 351 867 308 910 l 215 972 b 411 779 215 861 297 779 z m 626 700 l 626 597 b 394 711 583 664 489 711 b 57 350 176 711 57 554 b 394 -11 57 146 176 -11 b 626 97 500 -11 593 32 l 626 -26 b 472 -187 626 -119 563 -187 l 149 -187 l 149 -283 l 479 -283 b 738 -31 631 -283 738 -179 l 738 700 z m 404 89 b 171 350 263 89 171 192 b 404 611 171 508 263 611 b 636 350 544 611 636 508 b 404 89 636 192 544 89 z "},"ĝ":{"ha":835,"x_min":0,"x_max":0,"o":"m 413 893 l 506 776 l 611 776 l 458 971 l 365 971 l 214 776 l 317 776 z m 626 700 l 626 597 b 394 711 583 664 489 711 b 57 350 176 711 57 554 b 394 -11 57 146 176 -11 b 626 97 500 -11 593 32 l 626 -26 b 472 -187 626 -119 563 -187 l 149 -187 l 149 -283 l 479 -283 b 738 -31 631 -283 738 -179 l 738 700 z m 404 89 b 171 350 263 89 171 192 b 404 611 171 508 263 611 b 636 350 544 611 636 508 b 404 89 636 192 544 89 z "},"ģ":{"ha":835,"x_min":0,"x_max":0,"o":"m 531 989 l 450 989 l 369 781 l 489 781 z m 626 700 l 626 597 b 394 711 583 664 489 711 b 57 350 176 711 57 554 b 394 -11 57 146 176 -11 b 626 97 500 -11 593 32 l 626 -26 b 472 -187 626 -119 563 -187 l 149 -187 l 149 -283 l 479 -283 b 738 -31 631 -283 738 -179 l 738 700 z m 404 89 b 171 350 263 89 171 192 b 404 611 171 508 263 611 b 636 350 544 611 636 508 b 404 89 636 192 544 89 z "},"ġ":{"ha":835,"x_min":0,"x_max":0,"o":"m 475 988 l 347 988 l 347 832 l 475 832 z m 626 700 l 626 597 b 394 711 583 664 489 711 b 57 350 176 711 57 554 b 394 -11 57 146 176 -11 b 626 97 500 -11 593 32 l 626 -26 b 472 -187 626 -119 563 -187 l 149 -187 l 149 -283 l 479 -283 b 738 -31 631 -283 738 -179 l 738 700 z m 404 89 b 171 350 263 89 171 192 b 404 611 171 508 263 611 b 636 350 544 611 636 508 b 404 89 636 192 544 89 z "},"h":{"ha":792,"x_min":0,"x_max":0,"o":"m 97 0 l 208 0 l 208 378 b 414 610 208 514 294 610 b 589 410 519 610 589 529 l 589 0 l 700 0 l 700 428 b 439 711 700 599 597 711 b 208 565 332 711 244 663 l 208 988 l 97 988 z "},"ħ":{"ha":776,"x_min":0,"x_max":0,"o":"m 429 711 b 197 565 321 711 235 663 l 197 797 l 399 797 l 399 886 l 197 886 l 197 988 l 86 988 l 86 886 l -18 886 l -18 797 l 86 797 l 86 0 l 197 0 l 197 378 b 404 610 197 514 283 610 b 579 410 510 610 579 529 l 579 0 l 690 0 l 690 428 b 429 711 690 599 588 711 z "},"ĥ":{"ha":792,"x_min":0,"x_max":0,"o":"m 107 1243 l -44 1049 l 58 1049 l 154 1165 l 247 1049 l 351 1049 l 200 1243 z m 97 0 l 208 0 l 208 378 b 414 610 208 514 294 610 b 589 410 519 610 589 529 l 589 0 l 700 0 l 700 428 b 439 711 700 599 597 711 b 208 565 332 711 244 663 l 208 988 l 97 988 z "},"i":{"ha":294,"x_min":0,"x_max":0,"o":"m 83 988 l 83 832 l 211 832 l 211 988 z m 92 0 l 203 0 l 203 700 l 92 700 z "},"ı":{"ha":294,"x_min":0,"x_max":0,"o":"m 92 0 l 203 0 l 203 700 l 92 700 z "},"í":{"ha":294,"x_min":0,"x_max":0,"o":"m 94 776 l 200 776 l 344 982 l 215 982 z m 92 0 l 203 0 l 203 700 l 92 700 z "},"ĭ":{"ha":294,"x_min":0,"x_max":0,"o":"m 147 779 b 342 972 258 779 342 861 l 250 972 b 147 867 250 910 206 867 b 44 972 88 867 44 910 l -49 972 b 147 779 -49 861 33 779 z m 92 0 l 203 0 l 203 700 l 92 700 z "},"î":{"ha":294,"x_min":0,"x_max":0,"o":"m 101 971 l -50 776 l 53 776 l 149 893 l 242 776 l 346 776 l 194 971 z m 92 0 l 203 0 l 203 700 l 92 700 z "},"ï":{"ha":294,"x_min":0,"x_max":0,"o":"m -22 957 l -22 828 l 83 828 l 83 957 z m 206 957 l 206 828 l 311 828 l 311 957 z m 92 0 l 203 0 l 203 700 l 92 700 z "},"ì":{"ha":294,"x_min":0,"x_max":0,"o":"m 199 776 l 78 982 l -51 982 l 93 776 z m 92 0 l 203 0 l 203 700 l 92 700 z "},"ĳ":{"ha":589,"x_min":0,"x_max":0,"o":"m 83 832 l 211 832 l 211 988 l 83 988 z m 376 988 l 376 832 l 504 832 l 504 988 z m 92 0 l 203 0 l 203 700 l 92 700 z m 386 700 l 386 -50 b 289 -187 386 -143 379 -187 l 232 -187 l 232 -283 l 296 -283 b 497 -54 449 -283 497 -201 l 497 700 z "},"ī":{"ha":294,"x_min":0,"x_max":0,"o":"m -39 821 l 331 821 l 331 914 l -39 914 z m 92 0 l 203 0 l 203 700 l 92 700 z "},"į":{"ha":294,"x_min":0,"x_max":0,"o":"m 211 988 l 83 988 l 83 832 l 211 832 z m 231 -119 b 167 -154 210 -142 192 -154 b 119 -110 138 -154 119 -137 b 203 0 119 -76 147 -46 l 203 700 l 92 700 l 92 0 l 115 0 b 25 -133 56 -36 25 -86 b 149 -244 25 -200 72 -244 b 278 -187 203 -244 242 -226 z "},"ĩ":{"ha":294,"x_min":0,"x_max":0,"o":"m 233 814 b 364 956 306 814 358 869 l 279 956 b 224 907 272 926 251 907 b 60 963 175 907 142 963 b -71 821 -11 963 -64 906 l 15 821 b 69 869 21 850 42 869 b 233 814 118 869 153 814 z m 92 0 l 203 0 l 203 700 l 92 700 z "},"j":{"ha":294,"x_min":0,"x_max":0,"o":"m 82 988 l 82 832 l 210 832 l 210 988 z m 92 700 l 92 -50 b -6 -187 92 -143 85 -187 l -62 -187 l -62 -283 l 1 -283 b 203 -54 154 -283 203 -201 l 203 700 z "},"ȷ":{"ha":294,"x_min":0,"x_max":0,"o":"m 92 700 l 92 -50 b -6 -187 92 -143 85 -187 l -62 -187 l -62 -283 l 1 -283 b 203 -54 154 -283 203 -201 l 203 700 z "},"ĵ":{"ha":294,"x_min":0,"x_max":0,"o":"m 194 971 l 101 971 l -50 776 l 53 776 l 149 893 l 242 776 l 346 776 z m 92 700 l 92 -50 b -6 -187 92 -143 85 -187 l -62 -187 l -62 -283 l 1 -283 b 203 -54 154 -283 203 -201 l 203 700 z "},"k":{"ha":729,"x_min":0,"x_max":0,"o":"m 574 0 l 714 0 l 386 426 l 686 700 l 539 700 l 210 404 l 210 988 l 97 988 l 97 0 l 210 0 l 210 267 l 301 350 z "},"ķ":{"ha":729,"x_min":0,"x_max":0,"o":"m 386 426 l 686 700 l 539 700 l 210 404 l 210 988 l 97 988 l 97 0 l 210 0 l 210 267 l 301 350 l 574 0 l 714 0 z m 208 -294 l 301 -294 l 426 -94 l 274 -94 z "},"ĸ":{"ha":729,"x_min":0,"x_max":0,"o":"m 574 0 l 714 0 l 386 426 l 686 700 l 544 700 l 210 407 l 210 700 l 97 700 l 97 0 l 210 0 l 210 267 l 301 350 z "},"l":{"ha":306,"x_min":0,"x_max":0,"o":"m 97 0 l 208 0 l 208 988 l 97 988 z "},"ĺ":{"ha":306,"x_min":0,"x_max":0,"o":"m 96 1049 l 201 1049 l 346 1254 l 217 1254 z m 97 0 l 208 0 l 208 988 l 97 988 z "},"ľ":{"ha":408,"x_min":0,"x_max":0,"o":"m 231 778 l 293 778 l 382 1018 l 276 1018 z m 83 0 l 194 0 l 194 988 l 83 988 z "},"ļ":{"ha":306,"x_min":0,"x_max":0,"o":"m 97 0 l 208 0 l 208 988 l 97 988 z m 15 -294 l 108 -294 l 233 -94 l 81 -94 z "},"ŀ":{"ha":446,"x_min":0,"x_max":0,"o":"m 83 0 l 194 0 l 194 988 l 83 988 z m 268 558 l 268 403 l 396 403 l 396 558 z "},"ł":{"ha":306,"x_min":0,"x_max":0,"o":"m 318 565 l 208 538 l 208 988 l 97 988 l 97 508 l -14 481 l -14 392 l 97 419 l 97 0 l 208 0 l 208 449 l 318 476 z "},"m":{"ha":1206,"x_min":0,"x_max":0,"o":"m 92 0 l 203 0 l 203 411 b 390 613 203 531 272 613 b 547 411 488 613 547 531 l 547 0 l 658 0 l 658 411 b 844 613 658 531 728 613 b 1003 411 943 613 1003 531 l 1003 0 l 1114 0 l 1114 440 b 871 711 1114 610 1022 711 b 644 563 764 711 671 646 b 414 711 619 658 529 711 b 203 565 307 711 229 650 l 203 700 l 92 700 z "},"n":{"ha":786,"x_min":0,"x_max":0,"o":"m 92 0 l 203 0 l 203 378 b 408 610 203 514 289 610 b 583 410 514 610 583 529 l 583 0 l 694 0 l 694 428 b 433 711 694 599 592 711 b 203 565 326 711 239 663 l 203 700 l 92 700 z "},"ń":{"ha":786,"x_min":0,"x_max":0,"o":"m 338 776 l 443 776 l 588 982 l 458 982 z m 92 0 l 203 0 l 203 378 b 408 610 203 514 289 610 b 583 410 514 610 583 529 l 583 0 l 694 0 l 694 428 b 433 711 694 599 592 711 b 203 565 326 711 239 663 l 203 700 l 92 700 z "},"ň":{"ha":786,"x_min":0,"x_max":0,"o":"m 342 778 l 436 778 l 588 972 l 483 972 l 389 857 l 294 972 l 190 972 z m 92 0 l 203 0 l 203 378 b 408 610 203 514 289 610 b 583 410 514 610 583 529 l 583 0 l 694 0 l 694 428 b 433 711 694 599 592 711 b 203 565 326 711 239 663 l 203 700 l 92 700 z "},"ņ":{"ha":786,"x_min":0,"x_max":0,"o":"m 92 0 l 203 0 l 203 378 b 408 610 203 514 289 610 b 583 410 514 610 583 529 l 583 0 l 694 0 l 694 428 b 433 711 694 599 592 711 b 203 565 326 711 239 663 l 203 700 l 92 700 z m 257 -294 l 350 -294 l 475 -94 l 322 -94 z "},"ŋ":{"ha":790,"x_min":0,"x_max":0,"o":"m 433 711 b 203 565 326 711 239 663 l 203 700 l 92 700 l 92 0 l 203 0 l 203 378 b 408 610 203 514 289 610 b 583 410 514 610 583 529 l 583 -56 b 464 -186 583 -146 546 -193 l 464 -289 b 694 -74 603 -301 694 -207 l 694 428 b 433 711 694 599 592 711 z "},"ñ":{"ha":786,"x_min":0,"x_max":0,"o":"m 476 814 b 607 956 549 814 601 869 l 522 956 b 467 907 515 926 494 907 b 303 963 418 907 385 963 b 172 821 232 963 179 906 l 258 821 b 313 869 264 850 285 869 b 476 814 361 869 396 814 z m 92 0 l 203 0 l 203 378 b 408 610 203 514 289 610 b 583 410 514 610 583 529 l 583 0 l 694 0 l 694 428 b 433 711 694 599 592 711 b 203 565 326 711 239 663 l 203 700 l 92 700 z "},"o":{"ha":815,"x_min":0,"x_max":0,"o":"m 407 -11 b 764 350 615 -11 764 140 b 407 711 764 561 615 711 b 51 350 200 711 51 561 b 407 -11 51 140 200 -11 z m 407 89 b 165 350 264 89 165 197 b 407 611 165 503 264 611 b 650 350 551 611 650 503 b 407 89 650 197 551 89 z "},"ó":{"ha":815,"x_min":0,"x_max":0,"o":"m 356 776 l 461 776 l 606 982 l 476 982 z m 407 -11 b 764 350 615 -11 764 140 b 407 711 764 561 615 711 b 51 350 200 711 51 561 b 407 -11 51 140 200 -11 z m 407 89 b 165 350 264 89 165 197 b 407 611 165 503 264 611 b 650 350 551 611 650 503 b 407 89 650 197 551 89 z "},"ŏ":{"ha":815,"x_min":0,"x_max":0,"o":"m 408 779 b 603 972 519 779 603 861 l 511 972 b 408 867 511 910 467 867 b 306 972 349 867 306 910 l 213 972 b 408 779 213 861 294 779 z m 407 -11 b 764 350 615 -11 764 140 b 407 711 764 561 615 711 b 51 350 200 711 51 561 b 407 -11 51 140 200 -11 z m 407 89 b 165 350 264 89 165 197 b 407 611 165 503 264 611 b 650 350 551 611 650 503 b 407 89 650 197 551 89 z "},"ô":{"ha":815,"x_min":0,"x_max":0,"o":"m 363 971 l 211 776 l 314 776 l 410 893 l 503 776 l 608 776 l 456 971 z m 407 -11 b 764 350 615 -11 764 140 b 407 711 764 561 615 711 b 51 350 200 711 51 561 b 407 -11 51 140 200 -11 z m 407 89 b 165 350 264 89 165 197 b 407 611 165 503 264 611 b 650 350 551 611 650 503 b 407 89 650 197 551 89 z "},"ö":{"ha":815,"x_min":0,"x_max":0,"o":"m 239 957 l 239 828 l 344 828 l 344 957 z m 467 957 l 467 828 l 572 828 l 572 957 z m 407 -11 b 764 350 615 -11 764 140 b 407 711 764 561 615 711 b 51 350 200 711 51 561 b 407 -11 51 140 200 -11 z m 407 89 b 165 350 264 89 165 197 b 407 611 165 503 264 611 b 650 350 551 611 650 503 b 407 89 650 197 551 89 z "},"ò":{"ha":815,"x_min":0,"x_max":0,"o":"m 460 776 l 339 982 l 210 982 l 354 776 z m 407 -11 b 764 350 615 -11 764 140 b 407 711 764 561 615 711 b 51 350 200 711 51 561 b 407 -11 51 140 200 -11 z m 407 89 b 165 350 264 89 165 197 b 407 611 165 503 264 611 b 650 350 551 611 650 503 b 407 89 650 197 551 89 z "},"ő":{"ha":815,"x_min":0,"x_max":0,"o":"m 260 776 l 365 776 l 510 982 l 381 982 z m 447 776 l 553 776 l 697 982 l 568 982 z m 407 -11 b 764 350 615 -11 764 140 b 407 711 764 561 615 711 b 51 350 200 711 51 561 b 407 -11 51 140 200 -11 z m 407 89 b 165 350 264 89 165 197 b 407 611 165 503 264 611 b 650 350 551 611 650 503 b 407 89 650 197 551 89 z "},"ō":{"ha":815,"x_min":0,"x_max":0,"o":"m 222 821 l 592 821 l 592 914 l 222 914 z m 407 -11 b 764 350 615 -11 764 140 b 407 711 764 561 615 711 b 51 350 200 711 51 561 b 407 -11 51 140 200 -11 z m 407 89 b 165 350 264 89 165 197 b 407 611 165 503 264 611 b 650 350 551 611 650 503 b 407 89 650 197 551 89 z "},"ø":{"ha":826,"x_min":0,"x_max":0,"o":"m 407 711 b 51 350 200 711 51 561 b 407 -11 51 140 200 -11 b 764 350 615 -11 764 140 b 407 711 764 561 615 711 z m 407 611 b 543 572 458 611 506 597 l 213 188 b 165 350 182 231 165 286 b 407 611 165 503 264 611 z m 407 89 b 276 125 357 89 314 101 l 607 507 b 650 350 635 465 650 411 b 407 89 650 197 551 89 z "},"õ":{"ha":815,"x_min":0,"x_max":0,"o":"m 494 814 b 625 956 567 814 619 869 l 540 956 b 485 907 533 926 513 907 b 321 963 436 907 403 963 b 190 821 250 963 197 906 l 276 821 b 331 869 282 850 303 869 b 494 814 379 869 414 814 z m 407 -11 b 764 350 615 -11 764 140 b 407 711 764 561 615 711 b 51 350 200 711 51 561 b 407 -11 51 140 200 -11 z m 407 89 b 165 350 264 89 165 197 b 407 611 165 503 264 611 b 650 350 551 611 650 503 b 407 89 650 197 551 89 z "},"œ":{"ha":1389,"x_min":0,"x_max":0,"o":"m 1217 225 b 1010 88 1196 138 1124 88 b 774 335 878 88 782 190 l 1321 335 b 1324 383 1322 344 1324 368 b 997 711 1324 569 1201 711 b 711 550 865 711 765 649 b 407 711 650 650 540 711 b 51 350 200 711 51 561 b 407 -11 51 140 200 -11 b 714 158 543 -11 654 54 b 1010 -11 772 57 878 -11 b 1331 225 1183 -11 1307 82 z m 997 617 b 1210 424 1122 617 1200 542 l 779 424 b 997 617 800 547 879 617 z m 407 89 b 165 350 264 89 165 197 b 407 611 165 503 264 611 b 650 350 551 611 650 503 b 407 89 650 197 551 89 z "},"p":{"ha":829,"x_min":0,"x_max":0,"o":"m 97 -283 l 208 -283 l 208 113 b 439 -11 250 38 340 -11 b 778 350 656 -11 778 146 b 442 711 778 554 658 711 b 208 585 342 711 251 661 l 208 700 l 97 700 z m 431 89 b 199 350 290 89 199 192 b 431 611 199 508 290 611 b 663 350 571 611 663 508 b 431 89 663 192 571 89 z "},"þ":{"ha":835,"x_min":0,"x_max":0,"o":"m 97 -283 l 211 -283 l 211 83 b 439 -11 250 32 343 -11 b 778 350 657 -11 778 146 b 442 711 778 554 660 711 b 211 608 360 711 265 671 l 211 982 l 97 982 z m 431 89 b 199 350 279 89 199 199 b 431 611 199 499 279 611 b 664 350 582 611 664 499 b 431 89 664 199 582 89 z "},"q":{"ha":829,"x_min":0,"x_max":0,"o":"m 732 -283 l 732 700 l 621 700 l 621 585 b 388 711 579 661 488 711 b 51 350 171 711 51 554 b 392 -11 51 146 174 -11 b 621 113 489 -11 579 38 l 621 -283 z m 399 89 b 167 350 258 89 167 192 b 399 611 167 508 258 611 b 632 350 539 611 632 508 b 399 89 632 192 539 89 z "},"r":{"ha":508,"x_min":0,"x_max":0,"o":"m 482 601 l 482 700 l 393 700 b 203 558 290 700 232 654 l 203 700 l 92 700 l 92 0 l 203 0 l 203 308 b 385 601 203 474 243 601 z "},"ŕ":{"ha":508,"x_min":0,"x_max":0,"o":"m 239 776 l 344 776 l 489 982 l 360 982 z m 482 601 l 482 700 l 393 700 b 203 558 290 700 232 654 l 203 700 l 92 700 l 92 0 l 203 0 l 203 308 b 385 601 203 474 243 601 z "},"ř":{"ha":508,"x_min":0,"x_max":0,"o":"m 243 778 l 338 778 l 489 972 l 385 972 l 290 857 l 196 972 l 92 972 z m 482 601 l 482 700 l 393 700 b 203 558 290 700 232 654 l 203 700 l 92 700 l 92 0 l 203 0 l 203 308 b 385 601 203 474 243 601 z "},"ŗ":{"ha":508,"x_min":0,"x_max":0,"o":"m 482 601 l 482 700 l 393 700 b 203 558 290 700 232 654 l 203 700 l 92 700 l 92 0 l 203 0 l 203 308 b 385 601 203 474 243 601 z m 13 -294 l 106 -294 l 231 -94 l 78 -94 z "},"s":{"ha":653,"x_min":0,"x_max":0,"o":"m 335 -11 b 592 194 489 -11 592 69 b 182 517 592 515 182 328 b 318 617 182 578 236 617 b 479 497 382 617 469 586 l 588 497 b 321 711 579 626 475 711 b 74 515 174 711 74 633 b 481 192 74 213 481 400 b 335 86 481 135 422 86 b 163 225 233 86 172 135 l 56 225 b 335 -11 67 79 172 -11 z "},"ś":{"ha":653,"x_min":0,"x_max":0,"o":"m 267 776 l 372 776 l 517 982 l 388 982 z m 335 -11 b 592 194 489 -11 592 69 b 182 517 592 515 182 328 b 318 617 182 578 236 617 b 479 497 382 617 469 586 l 588 497 b 321 711 579 626 475 711 b 74 515 174 711 74 633 b 481 192 74 213 481 400 b 335 86 481 135 422 86 b 163 225 233 86 172 135 l 56 225 b 335 -11 67 79 172 -11 z "},"š":{"ha":653,"x_min":0,"x_max":0,"o":"m 271 778 l 365 778 l 517 972 l 413 972 l 318 857 l 224 972 l 119 972 z m 335 -11 b 592 194 489 -11 592 69 b 182 517 592 515 182 328 b 318 617 182 578 236 617 b 479 497 382 617 469 586 l 588 497 b 321 711 579 626 475 711 b 74 515 174 711 74 633 b 481 192 74 213 481 400 b 335 86 481 135 422 86 b 163 225 233 86 172 135 l 56 225 b 335 -11 67 79 172 -11 z "},"ş":{"ha":653,"x_min":0,"x_max":0,"o":"m 335 -11 b 592 194 489 -11 592 69 b 182 517 592 515 182 328 b 318 617 182 578 236 617 b 479 497 382 617 469 586 l 588 497 b 321 711 579 626 475 711 b 74 515 174 711 74 633 b 481 192 74 213 481 400 b 335 86 481 135 422 86 b 163 225 233 86 172 135 l 56 225 b 335 -11 67 79 172 -11 z m 301 -285 l 401 -82 l 306 -82 l 156 -285 z "},"ŝ":{"ha":653,"x_min":0,"x_max":0,"o":"m 274 971 l 122 776 l 225 776 l 321 893 l 414 776 l 519 776 l 367 971 z m 335 -11 b 592 194 489 -11 592 69 b 182 517 592 515 182 328 b 318 617 182 578 236 617 b 479 497 382 617 469 586 l 588 497 b 321 711 579 626 475 711 b 74 515 174 711 74 633 b 481 192 74 213 481 400 b 335 86 481 135 422 86 b 163 225 233 86 172 135 l 56 225 b 335 -11 67 79 172 -11 z "},"ș":{"ha":653,"x_min":0,"x_max":0,"o":"m 335 -11 b 592 194 489 -11 592 69 b 182 517 592 515 182 328 b 318 617 182 578 236 617 b 479 497 382 617 469 586 l 588 497 b 321 711 579 626 475 711 b 74 515 174 711 74 633 b 481 192 74 213 481 400 b 335 86 481 135 422 86 b 163 225 233 86 172 135 l 56 225 b 335 -11 67 79 172 -11 z m 185 -294 l 278 -294 l 403 -94 l 250 -94 z "},"ß":{"ha":801,"x_min":0,"x_max":0,"o":"m 618 532 b 747 722 683 560 747 632 b 446 983 747 881 635 983 b 103 631 233 983 103 846 l 103 569 l 10 569 l 10 464 l 103 464 l 103 0 l 221 0 l 221 629 b 447 879 221 781 306 879 b 629 719 564 879 629 819 b 447 569 629 619 564 569 l 336 569 l 336 464 l 453 464 b 669 285 596 464 669 401 b 453 107 669 169 596 107 l 336 107 l 336 0 l 472 0 b 790 283 672 0 790 108 b 618 532 790 419 718 499 z "},"ſ":{"ha":471,"x_min":0,"x_max":0,"o":"m 168 0 l 279 0 l 279 769 b 392 889 279 844 324 889 l 497 889 l 497 988 l 386 988 b 168 771 253 988 168 904 l 168 700 l 22 700 l 22 601 l 168 601 z "},"t":{"ha":524,"x_min":0,"x_max":0,"o":"m 168 924 l 168 700 l 22 700 l 22 601 l 168 601 l 168 219 b 388 0 168 83 254 0 l 494 0 l 494 99 l 392 99 b 279 222 324 99 279 144 l 279 601 l 494 601 l 494 700 l 279 700 l 279 924 z "},"ŧ":{"ha":524,"x_min":0,"x_max":0,"o":"m 494 601 l 494 700 l 279 700 l 279 924 l 168 924 l 168 700 l 22 700 l 22 601 l 168 601 l 168 396 l 67 396 l 67 308 l 168 308 l 168 219 b 388 0 168 83 254 0 l 494 0 l 494 99 l 392 99 b 279 222 324 99 279 144 l 279 308 l 481 308 l 481 396 l 279 396 l 279 601 z "},"ť":{"ha":524,"x_min":0,"x_max":0,"o":"m 386 778 l 449 778 l 538 1018 l 432 1018 z m 168 924 l 168 700 l 22 700 l 22 601 l 168 601 l 168 219 b 388 0 168 83 254 0 l 494 0 l 494 99 l 392 99 b 279 222 324 99 279 144 l 279 601 l 494 601 l 494 700 l 279 700 l 279 924 z "},"ţ":{"ha":524,"x_min":0,"x_max":0,"o":"m 168 924 l 168 700 l 22 700 l 22 601 l 168 601 l 168 219 b 388 0 168 83 254 0 l 494 0 l 494 99 l 392 99 b 279 222 324 99 279 144 l 279 601 l 494 601 l 494 700 l 279 700 l 279 924 z m 263 -285 l 363 -82 l 267 -82 l 117 -285 z "},"ț":{"ha":524,"x_min":0,"x_max":0,"o":"m 168 924 l 168 700 l 22 700 l 22 601 l 168 601 l 168 219 b 388 0 168 83 254 0 l 494 0 l 494 99 l 392 99 b 279 222 324 99 279 144 l 279 601 l 494 601 l 494 700 l 279 700 l 279 924 z m 146 -294 l 239 -294 l 364 -94 l 211 -94 z "},"u":{"ha":786,"x_min":0,"x_max":0,"o":"m 694 700 l 583 700 l 583 322 b 378 90 583 186 499 90 b 203 290 272 90 203 171 l 203 700 l 92 700 l 92 272 b 353 -11 92 101 194 -11 b 583 135 461 -11 547 38 l 583 0 l 694 0 z "},"ú":{"ha":786,"x_min":0,"x_max":0,"o":"m 340 776 l 446 776 l 590 982 l 461 982 z m 694 700 l 583 700 l 583 322 b 378 90 583 186 499 90 b 203 290 272 90 203 171 l 203 700 l 92 700 l 92 272 b 353 -11 92 101 194 -11 b 583 135 461 -11 547 38 l 583 0 l 694 0 z "},"ŭ":{"ha":786,"x_min":0,"x_max":0,"o":"m 393 779 b 588 972 504 779 588 861 l 496 972 b 393 867 496 910 451 867 b 290 972 333 867 290 910 l 197 972 b 393 779 197 861 279 779 z m 694 700 l 583 700 l 583 322 b 378 90 583 186 499 90 b 203 290 272 90 203 171 l 203 700 l 92 700 l 92 272 b 353 -11 92 101 194 -11 b 583 135 461 -11 547 38 l 583 0 l 694 0 z "},"û":{"ha":786,"x_min":0,"x_max":0,"o":"m 347 971 l 196 776 l 299 776 l 394 893 l 488 776 l 593 776 l 440 971 z m 694 700 l 583 700 l 583 322 b 378 90 583 186 499 90 b 203 290 272 90 203 171 l 203 700 l 92 700 l 92 272 b 353 -11 92 101 194 -11 b 583 135 461 -11 547 38 l 583 0 l 694 0 z "},"ü":{"ha":786,"x_min":0,"x_max":0,"o":"m 224 957 l 224 828 l 329 828 l 329 957 z m 451 957 l 451 828 l 557 828 l 557 957 z m 694 700 l 583 700 l 583 322 b 378 90 583 186 499 90 b 203 290 272 90 203 171 l 203 700 l 92 700 l 92 272 b 353 -11 92 101 194 -11 b 583 135 461 -11 547 38 l 583 0 l 694 0 z "},"ù":{"ha":786,"x_min":0,"x_max":0,"o":"m 444 776 l 324 982 l 194 982 l 339 776 z m 694 700 l 583 700 l 583 322 b 378 90 583 186 499 90 b 203 290 272 90 203 171 l 203 700 l 92 700 l 92 272 b 353 -11 92 101 194 -11 b 583 135 461 -11 547 38 l 583 0 l 694 0 z "},"ű":{"ha":786,"x_min":0,"x_max":0,"o":"m 244 776 l 350 776 l 494 982 l 365 982 z m 432 776 l 538 776 l 682 982 l 553 982 z m 694 700 l 583 700 l 583 322 b 378 90 583 186 499 90 b 203 290 272 90 203 171 l 203 700 l 92 700 l 92 272 b 353 -11 92 101 194 -11 b 583 135 461 -11 547 38 l 583 0 l 694 0 z "},"ū":{"ha":786,"x_min":0,"x_max":0,"o":"m 207 821 l 576 821 l 576 914 l 207 914 z m 694 700 l 583 700 l 583 322 b 378 90 583 186 499 90 b 203 290 272 90 203 171 l 203 700 l 92 700 l 92 272 b 353 -11 92 101 194 -11 b 583 135 461 -11 547 38 l 583 0 l 694 0 z "},"ų":{"ha":786,"x_min":0,"x_max":0,"o":"m 719 -119 b 656 -154 699 -142 681 -154 b 608 -110 626 -154 608 -137 b 692 0 608 -76 636 -46 l 694 0 l 694 700 l 583 700 l 583 322 b 378 90 583 186 499 90 b 203 290 272 90 203 171 l 203 700 l 92 700 l 92 272 b 353 -11 92 101 194 -11 b 583 135 461 -11 547 38 l 583 0 l 604 0 b 514 -133 544 -36 514 -86 b 638 -244 514 -200 561 -244 b 767 -187 692 -244 731 -226 z "},"ů":{"ha":786,"x_min":0,"x_max":0,"o":"m 390 757 b 558 911 486 757 558 822 b 390 1063 558 997 486 1063 b 224 911 294 1063 224 997 b 390 757 224 822 294 757 z m 390 828 b 304 911 340 828 304 863 b 390 993 304 958 340 993 b 479 911 442 993 479 958 b 390 828 479 863 442 828 z m 694 700 l 583 700 l 583 322 b 378 90 583 186 499 90 b 203 290 272 90 203 171 l 203 700 l 92 700 l 92 272 b 353 -11 92 101 194 -11 b 583 135 461 -11 547 38 l 583 0 l 694 0 z "},"ũ":{"ha":786,"x_min":0,"x_max":0,"o":"m 478 814 b 608 956 550 814 603 869 l 524 956 b 468 907 517 926 496 907 b 304 963 419 907 386 963 b 174 821 233 963 181 906 l 260 821 b 314 869 265 850 286 869 b 478 814 363 869 397 814 z m 694 700 l 583 700 l 583 322 b 378 90 583 186 499 90 b 203 290 272 90 203 171 l 203 700 l 92 700 l 92 272 b 353 -11 92 101 194 -11 b 583 135 461 -11 547 38 l 583 0 l 694 0 z "},"v":{"ha":665,"x_min":0,"x_max":0,"o":"m 275 0 l 390 0 l 647 700 l 531 700 l 332 139 l 133 700 l 18 700 z "},"w":{"ha":1032,"x_min":0,"x_max":0,"o":"m 238 0 l 344 0 l 515 557 l 688 0 l 794 0 l 1007 700 l 894 700 l 740 144 l 571 700 l 463 700 l 290 144 l 136 700 l 25 700 z "},"ẃ":{"ha":1032,"x_min":0,"x_max":0,"o":"m 464 776 l 569 776 l 714 982 l 585 982 z m 238 0 l 344 0 l 515 557 l 688 0 l 794 0 l 1007 700 l 894 700 l 740 144 l 571 700 l 463 700 l 290 144 l 136 700 l 25 700 z "},"ŵ":{"ha":1032,"x_min":0,"x_max":0,"o":"m 471 971 l 319 776 l 422 776 l 518 893 l 611 776 l 717 776 l 564 971 z m 238 0 l 344 0 l 515 557 l 688 0 l 794 0 l 1007 700 l 894 700 l 740 144 l 571 700 l 463 700 l 290 144 l 136 700 l 25 700 z "},"ẅ":{"ha":1032,"x_min":0,"x_max":0,"o":"m 347 957 l 347 828 l 453 828 l 453 957 z m 575 957 l 575 828 l 681 828 l 681 957 z m 238 0 l 344 0 l 515 557 l 688 0 l 794 0 l 1007 700 l 894 700 l 740 144 l 571 700 l 463 700 l 290 144 l 136 700 l 25 700 z "},"ẁ":{"ha":1032,"x_min":0,"x_max":0,"o":"m 568 776 l 447 982 l 318 982 l 463 776 z m 238 0 l 344 0 l 515 557 l 688 0 l 794 0 l 1007 700 l 894 700 l 740 144 l 571 700 l 463 700 l 290 144 l 136 700 l 25 700 z "},"x":{"ha":672,"x_min":0,"x_max":0,"o":"m 651 0 l 397 368 l 629 700 l 506 700 l 336 456 l 167 700 l 43 700 l 275 368 l 21 0 l 139 0 l 336 282 l 533 0 z "},"y":{"ha":665,"x_min":0,"x_max":0,"o":"m 647 700 l 531 700 l 332 144 l 133 700 l 18 700 l 279 -11 l 190 -283 l 297 -283 l 425 96 z "},"ý":{"ha":665,"x_min":0,"x_max":0,"o":"m 536 982 l 407 982 l 286 776 l 392 776 z m 647 700 l 531 700 l 332 144 l 133 700 l 18 700 l 279 -11 l 190 -283 l 297 -283 l 425 96 z "},"ŷ":{"ha":665,"x_min":0,"x_max":0,"o":"m 340 893 l 433 776 l 539 776 l 386 971 l 293 971 l 142 776 l 244 776 z m 647 700 l 531 700 l 332 144 l 133 700 l 18 700 l 279 -11 l 190 -283 l 297 -283 l 425 96 z "},"ÿ":{"ha":665,"x_min":0,"x_max":0,"o":"m 275 957 l 169 957 l 169 828 l 275 828 z m 503 957 l 397 957 l 397 828 l 503 828 z m 647 700 l 531 700 l 332 144 l 133 700 l 18 700 l 279 -11 l 190 -283 l 297 -283 l 425 96 z "},"ỳ":{"ha":665,"x_min":0,"x_max":0,"o":"m 390 776 l 269 982 l 140 982 l 285 776 z m 647 700 l 531 700 l 332 144 l 133 700 l 18 700 l 279 -11 l 190 -283 l 297 -283 l 425 96 z "},"z":{"ha":689,"x_min":0,"x_max":0,"o":"m 57 0 l 639 0 l 639 99 l 189 99 l 619 601 l 619 700 l 76 700 l 76 601 l 490 601 l 57 99 z "},"ź":{"ha":689,"x_min":0,"x_max":0,"o":"m 308 776 l 414 776 l 558 982 l 429 982 z m 57 0 l 639 0 l 639 99 l 189 99 l 619 601 l 619 700 l 76 700 l 76 601 l 490 601 l 57 99 z "},"ž":{"ha":689,"x_min":0,"x_max":0,"o":"m 313 778 l 407 778 l 558 972 l 454 972 l 360 857 l 265 972 l 161 972 z m 57 0 l 639 0 l 639 99 l 189 99 l 619 601 l 619 700 l 76 700 l 76 601 l 490 601 l 57 99 z "},"ż":{"ha":689,"x_min":0,"x_max":0,"o":"m 297 988 l 297 832 l 425 832 l 425 988 z m 57 0 l 639 0 l 639 99 l 189 99 l 619 601 l 619 700 l 76 700 l 76 601 l 490 601 l 57 99 z "},"ª":{"ha":431,"x_min":0,"x_max":0,"o":"m 208 983 b 32 839 111 983 39 919 l 110 839 b 210 917 113 879 151 917 b 310 836 267 917 310 885 l 310 835 b 285 810 310 819 300 810 l 194 810 b 32 676 89 810 32 761 b 175 550 32 604 92 550 b 310 624 236 550 290 581 l 310 557 l 392 557 l 392 831 b 208 983 392 922 314 983 z m 192 617 b 117 679 149 617 117 643 b 206 753 117 726 143 753 l 310 753 l 310 740 b 192 617 310 664 265 617 z "},"º":{"ha":497,"x_min":0,"x_max":0,"o":"m 247 550 b 465 767 374 550 465 640 b 247 983 465 893 374 983 b 32 767 121 983 32 893 b 247 550 32 640 121 550 z m 247 625 b 118 767 171 625 118 683 b 247 910 118 851 171 910 b 378 767 326 910 378 851 b 247 625 378 683 326 625 z "},"Δ":{"ha":907,"x_min":0,"x_max":0,"o":"m 507 972 l 400 972 l 13 0 l 894 0 z m 176 106 l 454 815 l 731 106 z "},"Ω":{"ha":1021,"x_min":0,"x_max":0,"o":"m 965 521 b 510 983 965 788 769 983 b 54 521 251 983 54 788 b 285 107 54 353 147 196 l 76 107 l 76 0 l 407 0 l 407 135 b 178 518 265 215 178 363 b 510 882 178 729 318 882 b 843 518 704 882 843 729 b 614 135 843 363 757 214 l 614 0 l 944 0 l 944 107 l 738 107 b 965 521 874 196 965 351 z "},"μ":{"ha":789,"x_min":0,"x_max":0,"o":"m 583 700 l 583 322 b 378 90 583 186 497 90 b 203 290 272 90 203 171 l 203 700 l 92 700 l 92 -283 l 203 -283 l 203 56 b 361 -11 246 14 300 -11 b 583 135 465 -11 549 38 l 583 0 l 694 0 l 694 700 z "},"π":{"ha":854,"x_min":0,"x_max":0,"o":"m 190 0 l 300 0 l 300 603 l 553 603 l 553 0 l 661 0 l 661 603 l 796 603 l 796 700 l 58 700 l 58 603 l 190 603 z "},"⁰":{"ha":521,"x_min":0,"x_max":0,"o":"m 244 438 l 276 438 b 482 714 421 438 482 536 l 482 758 b 276 1035 482 936 421 1035 l 244 1035 b 39 758 101 1035 39 936 l 39 714 b 244 438 39 536 101 438 z m 249 518 b 129 696 169 518 129 578 l 129 778 b 249 954 129 894 169 954 l 274 954 b 392 778 353 954 392 894 l 392 696 b 274 518 392 578 353 518 z "},"¹":{"ha":304,"x_min":0,"x_max":0,"o":"m 243 1028 l 156 1028 b 86 949 150 965 126 949 l 42 949 l 42 868 l 92 868 b 153 890 115 868 143 875 l 153 444 l 243 444 z "},"²":{"ha":474,"x_min":0,"x_max":0,"o":"m 46 832 l 139 832 b 246 957 136 907 178 957 b 350 858 307 957 350 918 b 272 747 350 813 326 776 l 182 701 b 43 508 124 672 42 610 l 43 444 l 444 444 l 444 525 l 136 525 b 228 632 138 572 186 611 l 306 672 b 443 857 397 718 443 779 b 246 1035 443 964 361 1035 b 46 832 122 1035 43 957 z "},"³":{"ha":506,"x_min":0,"x_max":0,"o":"m 258 438 b 469 613 371 438 469 500 b 367 751 469 682 426 728 b 446 879 411 775 446 825 b 254 1035 446 967 364 1035 b 65 860 149 1035 68 967 l 150 860 b 251 957 153 922 193 957 b 356 875 315 957 356 926 b 257 785 356 822 318 785 l 208 785 l 208 707 l 258 707 b 376 614 332 707 376 674 b 258 518 376 554 332 518 b 133 628 189 518 133 560 l 46 628 b 258 438 46 513 139 438 z "},"⁴":{"ha":543,"x_min":0,"x_max":0,"o":"m 332 444 l 424 444 l 424 579 l 506 579 l 506 658 l 424 658 l 424 1028 l 322 1028 l 28 658 l 28 579 l 332 579 z m 121 658 l 332 922 l 332 658 z "},"⁵":{"ha":499,"x_min":0,"x_max":0,"o":"m 246 438 b 461 636 372 438 461 518 b 256 833 461 753 378 833 b 149 794 217 833 175 817 l 171 947 l 421 947 l 421 1028 l 103 1028 l 58 700 l 132 700 b 246 760 150 739 190 760 b 374 636 322 760 374 711 b 246 515 374 563 324 515 b 128 613 182 515 136 551 l 46 613 b 246 438 54 517 139 438 z "},"⁶":{"ha":529,"x_min":0,"x_max":0,"o":"m 274 835 b 129 753 215 835 153 800 b 279 958 133 869 192 958 b 397 875 343 958 388 925 l 483 875 b 276 1035 469 967 390 1035 b 46 710 143 1035 46 922 b 267 438 46 550 128 438 b 479 636 388 438 479 522 b 274 835 479 750 396 835 z m 267 514 b 140 638 192 514 140 565 b 267 758 140 708 192 758 b 393 638 342 758 393 708 b 267 514 393 565 342 514 z "},"⁷":{"ha":436,"x_min":0,"x_max":0,"o":"m 140 444 l 232 444 b 303 703 232 531 243 604 l 458 954 l 458 1028 l 33 1028 l 33 947 l 357 947 l 228 742 b 140 444 154 625 140 540 z "},"⁸":{"ha":515,"x_min":0,"x_max":0,"o":"m 258 438 b 469 613 375 438 469 503 b 367 758 469 683 426 736 b 447 879 413 782 447 825 b 258 1035 447 971 369 1035 b 71 879 147 1035 71 971 b 149 758 71 825 104 782 b 46 613 90 736 46 683 b 258 438 46 503 140 438 z m 258 793 b 156 876 196 793 156 825 b 258 960 156 928 196 960 b 361 876 321 960 361 928 b 258 793 361 825 321 793 z m 258 517 b 135 614 185 517 135 553 b 258 714 135 676 185 714 b 381 614 333 714 381 676 b 258 517 381 553 333 517 z "},"⁹":{"ha":531,"x_min":0,"x_max":0,"o":"m 256 638 b 401 719 315 638 376 672 b 251 514 396 603 339 514 b 132 597 188 514 143 547 l 47 597 b 253 438 61 506 140 438 b 485 763 386 438 485 550 b 264 1035 485 922 403 1035 b 51 836 142 1035 51 950 b 256 638 51 724 135 638 z m 264 958 b 390 835 339 958 390 907 b 264 714 390 764 339 714 b 136 835 189 714 136 764 b 264 958 136 907 189 958 z "},"⁄":{"ha":369,"x_min":0,"x_max":0,"o":"m -219 0 l -117 0 l 590 972 l 486 972 z "},"½":{"ha":1129,"x_min":0,"x_max":0,"o":"m 243 972 l 156 972 b 86 893 150 910 126 893 l 42 893 l 42 813 l 92 813 b 153 835 115 813 143 819 l 153 389 l 243 389 z m 115 0 l 219 0 l 925 972 l 821 972 z m 751 388 l 844 388 b 951 513 842 463 883 513 b 1056 414 1013 513 1056 474 b 978 303 1056 368 1032 332 l 888 257 b 749 64 829 228 747 165 l 749 0 l 1150 0 l 1150 81 l 842 81 b 933 188 843 128 892 167 l 1011 228 b 1149 413 1103 274 1149 335 b 951 590 1149 519 1067 590 b 751 388 828 590 749 513 z "},"⅓":{"ha":1160,"x_min":0,"x_max":0,"o":"m 243 972 l 156 972 b 86 893 150 910 126 893 l 42 893 l 42 813 l 92 813 b 153 835 115 813 143 819 l 153 389 l 243 389 z m 115 0 l 219 0 l 925 972 l 821 972 z m 913 -7 b 1124 168 1025 -7 1124 56 b 1021 307 1124 238 1081 283 b 1100 435 1065 331 1100 381 b 908 590 1100 522 1018 590 b 719 415 803 590 722 522 l 804 415 b 906 513 807 478 847 513 b 1010 431 969 513 1010 482 b 911 340 1010 378 972 340 l 863 340 l 863 263 l 913 263 b 1031 169 986 263 1031 229 b 913 74 1031 110 986 74 b 788 183 843 74 788 115 l 700 183 b 913 -7 700 68 793 -7 z "},"⅔":{"ha":1325,"x_min":0,"x_max":0,"o":"m 46 776 l 139 776 b 246 901 136 851 178 901 b 350 803 307 901 350 863 b 272 692 350 757 326 721 l 182 646 b 43 453 124 617 42 554 l 43 389 l 444 389 l 444 469 l 136 469 b 228 576 138 517 186 556 l 306 617 b 443 801 397 663 443 724 b 246 979 443 908 361 979 b 46 776 122 979 43 901 z m 282 0 l 386 0 l 1092 972 l 988 972 z m 1078 -7 b 1289 168 1190 -7 1289 56 b 1186 307 1289 238 1246 283 b 1265 435 1231 331 1265 381 b 1074 590 1265 522 1183 590 b 885 415 968 590 888 522 l 969 415 b 1071 513 972 478 1013 513 b 1175 431 1135 513 1175 482 b 1076 340 1175 378 1138 340 l 1028 340 l 1028 263 l 1078 263 b 1196 169 1151 263 1196 229 b 1078 74 1196 110 1151 74 b 953 183 1008 74 953 115 l 865 183 b 1078 -7 865 68 958 -7 z "},"¼":{"ha":1140,"x_min":0,"x_max":0,"o":"m 243 972 l 156 972 b 86 893 150 910 126 893 l 42 893 l 42 813 l 92 813 b 153 835 115 813 143 819 l 153 389 l 243 389 z m 115 0 l 219 0 l 925 972 l 821 972 z m 929 0 l 1021 0 l 1021 135 l 1103 135 l 1103 214 l 1021 214 l 1021 583 l 919 583 l 625 214 l 625 135 l 929 135 z m 718 214 l 929 478 l 929 214 z "},"¾":{"ha":1310,"x_min":0,"x_max":0,"o":"m 258 382 b 469 557 371 382 469 444 b 367 696 469 626 426 672 b 446 824 411 719 446 769 b 254 979 446 911 364 979 b 65 804 149 979 68 911 l 150 804 b 251 901 153 867 193 901 b 356 819 315 901 356 871 b 257 729 356 767 318 729 l 208 729 l 208 651 l 258 651 b 376 558 332 651 376 618 b 258 463 376 499 332 463 b 133 572 189 463 133 504 l 46 572 b 258 382 46 457 139 382 z m 286 0 l 390 0 l 1096 972 l 992 972 z m 1099 0 l 1190 0 l 1190 135 l 1272 135 l 1272 214 l 1190 214 l 1190 583 l 1089 583 l 794 214 l 794 135 l 1099 135 z m 888 214 l 1099 478 l 1099 214 z "},"⅛":{"ha":1169,"x_min":0,"x_max":0,"o":"m 243 972 l 156 972 b 86 893 150 910 126 893 l 42 893 l 42 813 l 92 813 b 153 835 115 813 143 819 l 153 389 l 243 389 z m 115 0 l 219 0 l 925 972 l 821 972 z m 913 -7 b 1124 168 1029 -7 1124 58 b 1021 314 1124 239 1081 292 b 1101 435 1067 338 1101 381 b 913 590 1101 526 1024 590 b 725 435 801 590 725 526 b 803 314 725 381 758 338 b 700 168 744 292 700 239 b 913 -7 700 58 794 -7 z m 913 349 b 810 432 850 349 810 381 b 913 515 810 483 850 515 b 1015 432 975 515 1015 483 b 913 349 1015 381 975 349 z m 913 72 b 789 169 839 72 789 108 b 913 269 789 232 839 269 b 1035 169 988 269 1035 232 b 913 72 1035 108 988 72 z "},"⅜":{"ha":1339,"x_min":0,"x_max":0,"o":"m 258 382 b 469 557 371 382 469 444 b 367 696 469 626 426 672 b 446 824 411 719 446 769 b 254 979 446 911 364 979 b 65 804 149 979 68 911 l 150 804 b 251 901 153 867 193 901 b 356 819 315 901 356 871 b 257 729 356 767 318 729 l 208 729 l 208 651 l 258 651 b 376 558 332 651 376 618 b 258 463 376 499 332 463 b 133 572 189 463 133 504 l 46 572 b 258 382 46 457 139 382 z m 286 0 l 390 0 l 1096 972 l 992 972 z m 1082 -7 b 1293 168 1199 -7 1293 58 b 1190 314 1293 239 1250 292 b 1271 435 1236 338 1271 381 b 1082 590 1271 526 1193 590 b 894 435 971 590 894 526 b 972 314 894 381 928 338 b 869 168 914 292 869 239 b 1082 -7 869 58 964 -7 z m 1082 349 b 979 432 1019 349 979 381 b 1082 515 979 483 1019 515 b 1185 432 1144 515 1185 483 b 1082 349 1185 381 1144 349 z m 1082 72 b 958 169 1008 72 958 108 b 1082 269 958 232 1008 269 b 1204 169 1157 269 1204 232 b 1082 72 1204 108 1157 72 z "},"⅝":{"ha":1332,"x_min":0,"x_max":0,"o":"m 246 382 b 461 581 372 382 461 463 b 256 778 461 697 378 778 b 149 739 217 778 175 761 l 171 892 l 421 892 l 421 972 l 103 972 l 58 644 l 132 644 b 246 704 150 683 190 704 b 374 581 322 704 374 656 b 246 460 374 507 324 460 b 128 557 182 460 136 496 l 46 557 b 246 382 54 461 139 382 z m 279 0 l 383 0 l 1089 972 l 985 972 z m 1075 -7 b 1286 168 1192 -7 1286 58 b 1183 314 1286 239 1243 292 b 1264 435 1229 338 1264 381 b 1075 590 1264 526 1186 590 b 888 435 964 590 888 526 b 965 314 888 381 921 338 b 863 168 907 292 863 239 b 1075 -7 863 58 957 -7 z m 1075 349 b 972 432 1013 349 972 381 b 1075 515 972 483 1013 515 b 1178 432 1138 515 1178 483 b 1075 349 1178 381 1138 349 z m 1075 72 b 951 169 1001 72 951 108 b 1075 269 951 232 1001 269 b 1197 169 1150 269 1197 232 b 1075 72 1197 108 1150 72 z "},"⅞":{"ha":1196,"x_min":0,"x_max":0,"o":"m 140 389 l 232 389 b 303 647 232 475 243 549 l 458 899 l 458 972 l 33 972 l 33 892 l 357 892 l 228 686 b 140 389 154 569 140 485 z m 143 0 l 247 0 l 953 972 l 849 972 z m 939 -7 b 1150 168 1056 -7 1150 58 b 1047 314 1150 239 1107 292 b 1128 435 1093 338 1128 381 b 939 590 1128 526 1050 590 b 751 435 828 590 751 526 b 829 314 751 381 785 338 b 726 168 771 292 726 239 b 939 -7 726 58 821 -7 z m 939 349 b 836 432 876 349 836 381 b 939 515 836 483 876 515 b 1042 432 1001 515 1042 483 b 939 349 1042 381 1001 349 z m 939 72 b 815 169 865 72 815 108 b 939 269 815 232 865 269 b 1061 169 1014 269 1061 232 b 939 72 1061 108 1014 72 z "},".":{"ha":347,"x_min":0,"x_max":0,"o":"m 113 131 l 113 0 l 236 0 l 236 131 z "},",":{"ha":374,"x_min":0,"x_max":0,"o":"m 57 -69 l 57 -167 l 113 -167 b 276 15 214 -167 276 -103 l 276 142 l 165 142 l 165 21 b 106 -69 165 -40 143 -69 z "},":":{"ha":347,"x_min":0,"x_max":0,"o":"m 113 639 l 113 508 l 236 508 l 236 639 z m 113 131 l 113 0 l 236 0 l 236 131 z "},";":{"ha":374,"x_min":0,"x_max":0,"o":"m 160 639 l 160 508 l 282 508 l 282 639 z m 57 -69 l 57 -167 l 113 -167 b 276 15 214 -167 276 -103 l 276 142 l 165 142 l 165 21 b 106 -69 165 -40 143 -69 z "},"…":{"ha":1038,"x_min":0,"x_max":0,"o":"m 113 131 l 113 0 l 236 0 l 236 131 z m 457 131 l 457 0 l 581 0 l 581 131 z m 801 131 l 801 0 l 925 0 l 925 131 z "},"!":{"ha":350,"x_min":0,"x_max":0,"o":"m 135 219 l 215 219 l 249 972 l 101 972 z m 114 131 l 114 0 l 236 0 l 236 131 z "},"¡":{"ha":389,"x_min":0,"x_max":0,"o":"m 106 558 l 229 558 l 229 689 l 106 689 z m 128 469 l 94 -283 l 240 -283 l 208 469 z "},"?":{"ha":711,"x_min":0,"x_max":0,"o":"m 333 219 l 533 219 l 533 315 l 336 315 b 224 406 269 315 224 338 b 658 736 224 560 658 458 b 361 983 658 888 542 983 b 50 708 186 983 57 878 l 163 708 b 361 882 168 818 251 882 b 536 735 472 882 536 829 b 111 404 536 532 111 668 b 333 219 111 278 200 219 z m 299 131 l 299 0 l 422 0 l 422 131 z "},"¿":{"ha":614,"x_min":0,"x_max":0,"o":"m 357 558 l 357 689 l 233 689 l 233 558 z m 322 469 l 122 469 l 122 374 l 319 374 b 432 283 386 374 432 353 b -3 -47 432 129 -3 231 b 294 -294 -3 -199 114 -294 b 606 -19 469 -294 599 -189 l 493 -19 b 294 -193 488 -129 404 -193 b 118 -46 183 -193 118 -140 b 544 285 118 157 544 22 b 322 469 544 411 456 469 z "},"·":{"ha":333,"x_min":0,"x_max":0,"o":"m 47 565 l 47 410 l 175 410 l 175 565 z "},"•":{"ha":365,"x_min":0,"x_max":0,"o":"m 182 246 b 308 372 251 246 308 303 b 182 499 308 442 251 499 b 57 372 113 499 57 442 b 182 246 57 303 113 246 z "},"*":{"ha":642,"x_min":0,"x_max":0,"o":"m 200 497 l 321 660 l 442 497 l 508 547 l 388 707 l 583 772 l 556 853 l 363 788 l 363 988 l 279 988 l 279 788 l 85 853 l 58 772 l 253 707 l 132 547 z "},"#":{"ha":1011,"x_min":0,"x_max":0,"o":"m 189 0 l 285 0 l 349 290 l 576 290 l 513 0 l 608 0 l 672 290 l 874 290 l 874 381 l 692 381 l 740 593 l 935 593 l 935 682 l 758 682 l 824 972 l 728 972 l 663 682 l 436 682 l 500 972 l 404 972 l 339 682 l 138 682 l 138 593 l 319 593 l 272 381 l 78 381 l 78 290 l 254 290 z m 368 381 l 415 593 l 644 593 l 597 381 z "},"/":{"ha":588,"x_min":0,"x_max":0,"o":"m 26 -1 l 124 -1 l 561 972 l 463 972 z "},"\\":{"ha":588,"x_min":0,"x_max":0,"o":"m 561 -1 l 125 972 l 28 972 l 465 -1 z "},"(":{"ha":381,"x_min":0,"x_max":0,"o":"m 275 -131 l 350 -72 b 174 465 233 97 174 276 b 350 1003 174 654 233 833 l 275 1061 b 67 465 140 896 67 679 b 275 -131 67 251 140 35 z "},")":{"ha":381,"x_min":0,"x_max":0,"o":"m 106 -131 b 314 465 240 35 314 251 b 106 1061 314 679 240 896 l 31 1003 b 207 465 147 833 207 654 b 31 -72 207 276 147 97 z "},"{":{"ha":439,"x_min":0,"x_max":0,"o":"m 326 -69 l 407 -69 l 407 26 l 363 26 b 289 94 311 26 289 46 l 289 351 b 192 486 289 438 251 468 b 289 621 251 504 289 535 l 289 878 b 363 946 289 926 311 946 l 407 946 l 407 1042 l 326 1042 b 183 899 242 1042 183 988 l 183 649 b 65 532 183 567 150 532 l 65 440 b 183 325 150 440 183 407 l 183 74 b 326 -69 183 -15 242 -69 z "},"}":{"ha":439,"x_min":0,"x_max":0,"o":"m 113 -69 b 256 74 197 -69 256 -15 l 256 325 b 374 440 256 407 289 440 l 374 532 b 256 649 289 532 256 567 l 256 899 b 113 1042 256 988 197 1042 l 32 1042 l 32 946 l 76 946 b 150 878 129 946 150 926 l 150 621 b 247 486 150 535 189 504 b 150 351 189 468 150 438 l 150 94 b 76 26 150 46 129 26 l 32 26 l 32 -69 z "},"[":{"ha":421,"x_min":0,"x_max":0,"o":"m 106 -78 l 376 -78 l 376 11 l 204 11 l 204 961 l 376 961 l 376 1050 l 106 1050 z "},"]":{"ha":421,"x_min":0,"x_max":0,"o":"m 315 -78 l 315 1050 l 44 1050 l 44 961 l 217 961 l 217 11 l 44 11 l 44 -78 z "},"-":{"ha":651,"x_min":0,"x_max":0,"o":"m 72 392 l 579 392 l 579 489 l 72 489 z "},"­":{"ha":833,"x_min":0,"x_max":0,"o":"m 72 392 l 579 392 l 579 489 l 72 489 z "},"–":{"ha":776,"x_min":0,"x_max":0,"o":"m 72 392 l 700 392 l 700 489 l 72 489 z "},"—":{"ha":1136,"x_min":0,"x_max":0,"o":"m 103 392 l 1033 392 l 1033 489 l 103 489 z "},"_":{"ha":844,"x_min":0,"x_max":0,"o":"m 103 -97 l 742 -97 l 742 0 l 103 0 z "},"‚":{"ha":328,"x_min":0,"x_max":0,"o":"m 74 -69 l 74 -167 l 100 -167 b 264 15 201 -167 264 -103 l 264 139 l 153 139 l 153 21 b 93 -69 153 -40 131 -69 z "},"„":{"ha":533,"x_min":0,"x_max":0,"o":"m 57 43 l 57 -54 l 83 -54 b 247 128 185 -54 247 11 l 247 251 l 136 251 l 136 133 b 76 43 136 72 113 43 z m 272 43 l 272 -54 l 299 -54 b 463 128 400 -54 463 11 l 463 251 l 351 251 l 351 133 b 292 43 351 72 328 43 z "},"“":{"ha":525,"x_min":0,"x_max":0,"o":"m 256 888 l 256 983 l 229 983 b 65 801 128 983 65 919 l 65 678 l 176 678 l 176 797 b 236 888 176 857 200 888 z m 471 888 l 471 983 l 444 983 b 282 801 344 983 282 919 l 282 678 l 392 678 l 392 797 b 451 888 392 857 415 888 z "},"”":{"ha":524,"x_min":0,"x_max":0,"o":"m 57 774 l 57 678 l 83 678 b 247 860 185 678 247 742 l 247 983 l 136 983 l 136 864 b 76 774 136 803 113 774 z m 272 774 l 272 678 l 299 678 b 463 860 400 678 463 742 l 463 983 l 351 983 l 351 864 b 292 774 351 803 328 774 z "},"‘":{"ha":326,"x_min":0,"x_max":0,"o":"m 276 888 l 276 983 l 250 983 b 86 801 149 983 86 919 l 86 678 l 197 678 l 197 797 b 257 888 197 858 221 888 z "},"’":{"ha":361,"x_min":0,"x_max":0,"o":"m 82 774 l 82 678 l 108 678 b 272 860 210 678 272 742 l 272 983 l 161 983 l 161 864 b 101 774 161 804 138 774 z "},"«":{"ha":840,"x_min":0,"x_max":0,"o":"m 433 117 l 433 233 l 142 431 l 433 628 l 433 744 l 26 465 l 26 396 z m 794 117 l 794 233 l 503 431 l 794 628 l 794 744 l 388 465 l 388 396 z "},"»":{"ha":840,"x_min":0,"x_max":0,"o":"m 50 117 l 457 396 l 457 465 l 50 744 l 50 628 l 342 431 l 50 233 z m 410 117 l 817 396 l 817 465 l 410 744 l 410 628 l 701 431 l 410 233 z "},"‹":{"ha":517,"x_min":0,"x_max":0,"o":"m 457 117 l 457 233 l 165 431 l 457 628 l 457 744 l 51 465 l 51 396 z "},"›":{"ha":497,"x_min":0,"x_max":0,"o":"m 78 117 l 485 396 l 485 465 l 78 744 l 78 628 l 369 431 l 78 233 z "},"\"":{"ha":563,"x_min":0,"x_max":0,"o":"m 126 660 l 206 660 l 240 983 l 93 983 z m 357 660 l 438 660 l 471 983 l 324 983 z "},"'":{"ha":332,"x_min":0,"x_max":0,"o":"m 126 660 l 206 660 l 240 983 l 93 983 z "},"¢":{"ha":754,"x_min":0,"x_max":0,"o":"m 393 89 b 167 350 242 89 167 207 b 393 611 167 493 240 611 b 600 464 499 611 586 549 l 710 464 b 454 706 692 599 585 685 l 454 864 l 344 864 l 344 708 b 51 350 154 685 51 524 b 344 -8 51 176 154 15 l 344 -161 l 454 -162 l 454 -7 b 708 226 596 13 688 101 l 600 226 b 393 89 575 142 499 89 z "},"¤":{"ha":915,"x_min":0,"x_max":0,"o":"m 817 350 b 753 567 817 433 793 507 l 860 675 l 782 751 l 675 644 b 461 711 617 688 544 711 b 243 643 376 711 301 686 l 133 751 l 57 675 l 167 563 b 104 350 126 504 104 432 b 167 136 104 268 126 194 l 57 26 l 135 -51 l 243 58 b 461 -11 301 14 376 -11 b 676 56 544 -11 618 13 l 781 -51 l 860 26 l 751 133 b 817 350 793 192 817 267 z m 461 89 b 219 350 317 89 219 197 b 461 611 219 503 317 611 b 703 350 606 611 703 503 b 461 89 703 197 606 89 z "},"$":{"ha":821,"x_min":0,"x_max":0,"o":"m 774 265 b 201 725 774 631 201 476 b 411 876 201 818 279 876 b 638 696 542 876 626 806 l 754 696 b 463 981 742 856 629 963 l 463 1097 l 360 1097 l 360 981 b 82 725 193 964 82 865 b 650 265 82 378 650 515 b 418 96 650 147 553 96 b 165 318 267 96 178 183 l 49 318 b 360 -8 60 138 175 14 l 360 -131 l 463 -132 l 463 -10 b 774 265 643 4 774 101 z "},"€":{"ha":889,"x_min":0,"x_max":0,"o":"m 699 229 b 531 96 679 150 621 96 l 486 96 b 264 331 356 96 285 175 l 604 331 l 604 426 l 258 426 l 258 433 l 258 539 l 258 558 l 604 558 l 604 653 l 265 653 b 486 876 288 801 358 876 l 531 876 b 696 750 618 876 676 825 l 819 750 b 533 983 790 893 697 983 l 482 983 b 147 653 282 983 175 868 l 28 653 l 28 558 l 139 558 l 139 525 l 139 447 l 139 426 l 28 426 l 28 331 l 146 331 b 482 -11 171 108 279 -11 l 533 -11 b 822 229 699 -11 793 82 z "},"ƒ":{"ha":744,"x_min":0,"x_max":0,"o":"m 626 893 l 724 892 l 724 988 l 646 988 b 365 757 494 988 401 933 l 353 700 l 132 700 l 132 601 l 333 601 l 194 -61 b 44 -187 175 -154 122 -189 l -53 -186 l -53 -283 l 25 -283 b 307 -53 178 -283 269 -229 l 443 601 l 724 601 l 724 700 l 464 700 l 478 767 b 626 893 497 860 550 893 z "},"£":{"ha":810,"x_min":0,"x_max":0,"o":"m 631 247 l 631 156 b 582 107 631 125 613 107 l 218 107 b 333 368 282 183 333 279 b 324 438 333 393 329 415 l 578 438 l 578 540 l 286 540 b 244 697 265 590 244 639 b 421 876 244 817 321 876 b 601 706 513 876 594 829 l 721 706 b 421 983 713 892 572 983 b 124 700 250 983 124 878 b 164 540 124 642 143 590 l 51 540 l 51 438 l 204 438 b 215 368 211 415 215 392 b 85 104 215 268 169 194 l 85 0 l 600 0 b 749 150 697 0 749 53 l 749 247 z "},"¥":{"ha":819,"x_min":0,"x_max":0,"o":"m 813 972 l 678 972 l 410 521 l 140 972 l 6 972 l 293 500 l 89 500 l 89 404 l 350 404 l 350 264 l 89 264 l 89 169 l 350 169 l 350 0 l 468 0 l 468 169 l 731 169 l 731 264 l 468 264 l 468 404 l 731 404 l 731 500 l 525 500 z "},"+":{"ha":844,"x_min":0,"x_max":0,"o":"m 742 489 l 471 489 l 471 761 l 374 761 l 374 489 l 103 489 l 103 392 l 374 392 l 374 121 l 471 121 l 471 392 l 742 392 z "},"−":{"ha":844,"x_min":0,"x_max":0,"o":"m 103 392 l 742 392 l 742 489 l 103 489 z "},"×":{"ha":767,"x_min":0,"x_max":0,"o":"m 664 671 l 594 740 l 383 529 l 172 740 l 103 671 l 314 460 l 103 250 l 172 181 l 383 390 l 593 181 l 663 250 l 453 460 z "},"÷":{"ha":844,"x_min":0,"x_max":0,"o":"m 361 774 l 361 643 l 483 643 l 483 774 z m 103 392 l 742 392 l 742 489 l 103 489 z m 361 235 l 361 104 l 483 104 l 483 235 z "},"=":{"ha":844,"x_min":0,"x_max":0,"o":"m 103 519 l 742 519 l 742 617 l 103 617 z m 103 208 l 742 208 l 742 306 l 103 306 z "},"≠":{"ha":815,"x_min":0,"x_max":0,"o":"m 742 519 l 742 617 l 588 617 l 646 718 l 549 718 l 490 617 l 103 617 l 103 519 l 436 519 l 314 306 l 103 306 l 103 208 l 258 208 l 200 106 l 296 106 l 354 208 l 742 208 l 742 306 l 410 306 l 532 519 z "},">":{"ha":635,"x_min":0,"x_max":0,"o":"m 61 118 l 578 376 l 578 485 l 61 743 l 61 632 l 476 431 l 61 229 z "},"<":{"ha":635,"x_min":0,"x_max":0,"o":"m 574 118 l 574 229 l 157 431 l 574 632 l 574 743 l 57 485 l 57 376 z "},"≥":{"ha":638,"x_min":0,"x_max":0,"o":"m 61 146 l 578 404 l 578 514 l 61 771 l 61 661 l 476 458 l 61 257 z m 64 0 l 575 0 l 575 97 l 64 97 z "},"≤":{"ha":638,"x_min":0,"x_max":0,"o":"m 576 146 l 576 257 l 161 458 l 576 661 l 576 771 l 60 514 l 60 404 z m 575 0 l 575 97 l 63 97 l 63 0 z "},"±":{"ha":767,"x_min":0,"x_max":0,"o":"m 335 267 l 433 267 l 433 513 l 700 513 l 700 610 l 433 610 l 433 854 l 335 854 l 335 610 l 68 610 l 68 513 l 335 513 z m 69 0 l 700 0 l 700 97 l 69 97 z "},"≈":{"ha":810,"x_min":0,"x_max":0,"o":"m 547 507 b 739 625 626 507 694 561 l 671 690 b 536 626 638 651 589 626 b 263 701 424 626 381 701 b 71 585 183 701 115 647 l 139 518 b 274 583 174 558 221 583 b 547 507 385 583 429 507 z m 549 228 b 739 346 626 228 696 282 l 672 411 b 536 346 636 372 590 346 b 263 422 425 346 382 422 b 71 306 185 422 115 368 l 140 239 b 275 304 175 278 221 304 b 549 228 386 304 429 228 z "},"~":{"ha":840,"x_min":0,"x_max":0,"o":"m 563 368 b 754 485 640 368 710 422 l 686 551 b 551 486 651 513 604 486 b 278 563 439 486 396 563 b 86 444 199 563 129 508 l 154 379 b 289 444 189 418 235 444 b 563 368 400 444 443 368 z "},"¬":{"ha":801,"x_min":0,"x_max":0,"o":"m 607 192 l 721 192 l 721 539 l 71 539 l 71 438 l 607 438 z "},"^":{"ha":751,"x_min":0,"x_max":0,"o":"m 53 590 l 172 590 l 376 874 l 579 590 l 699 590 l 419 972 l 332 972 z "},"∞":{"ha":1264,"x_min":0,"x_max":0,"o":"m 333 232 b 632 408 457 232 551 297 b 931 232 714 297 808 232 b 1204 499 1097 232 1204 342 b 931 765 1204 656 1097 765 b 632 589 808 765 714 700 b 333 765 551 700 457 765 b 60 499 167 765 60 656 b 333 232 60 342 167 232 z m 354 328 b 168 499 242 328 168 392 b 354 669 168 606 242 669 b 582 499 439 669 519 611 b 354 328 519 386 439 328 z m 910 328 b 682 499 826 328 746 386 b 910 669 746 611 826 669 b 1096 499 1024 669 1096 606 b 910 328 1096 392 1024 328 z "},"∫":{"ha":538,"x_min":0,"x_max":0,"o":"m 386 988 b 168 771 253 988 168 904 l 168 -64 b 57 -185 168 -139 125 -185 l -49 -185 l -49 -283 l 61 -283 b 279 -67 194 -283 279 -200 l 279 769 b 392 889 279 844 324 889 l 497 889 l 497 988 z "},"Ω":{"ha":1021,"x_min":0,"x_max":0,"o":"m 965 521 b 510 983 965 788 769 983 b 54 521 251 983 54 788 b 285 107 54 353 147 196 l 76 107 l 76 0 l 407 0 l 407 135 b 178 518 265 215 178 363 b 510 882 178 729 318 882 b 843 518 704 882 843 729 b 614 135 843 363 757 214 l 614 0 l 944 0 l 944 107 l 738 107 b 965 521 874 196 965 351 z "},"∆":{"ha":907,"x_min":0,"x_max":0,"o":"m 507 972 l 400 972 l 13 0 l 894 0 z m 176 106 l 454 815 l 731 106 z "},"∏":{"ha":894,"x_min":0,"x_max":0,"o":"m 103 0 l 225 0 l 225 865 l 667 865 l 667 0 l 792 0 l 792 972 l 103 972 z "},"∑":{"ha":761,"x_min":0,"x_max":0,"o":"m 60 0 l 693 0 l 693 107 l 204 107 l 501 439 l 501 533 l 206 865 l 693 865 l 693 972 l 60 972 l 60 868 l 394 486 l 60 104 z "},"√":{"ha":763,"x_min":0,"x_max":0,"o":"m 324 0 l 446 0 l 756 972 l 639 972 l 382 144 l 258 543 l 39 543 l 39 436 l 183 436 z "},"µ":{"ha":786,"x_min":0,"x_max":0,"o":"m 583 700 l 583 322 b 378 90 583 186 497 90 b 203 290 272 90 203 171 l 203 700 l 92 700 l 92 -283 l 203 -283 l 203 56 b 361 -11 246 14 300 -11 b 583 135 465 -11 549 38 l 583 0 l 694 0 l 694 700 z "},"∂":{"ha":826,"x_min":0,"x_max":0,"o":"m 429 -11 b 789 432 651 -11 789 164 b 79 906 789 996 314 1094 l 140 819 b 686 497 353 1000 683 844 b 424 649 644 586 532 649 b 86 321 235 649 86 501 b 429 -11 86 136 240 -11 z m 429 93 b 193 322 290 93 193 189 b 429 547 193 453 290 547 b 668 322 569 547 668 453 b 429 93 668 189 569 93 z "},"%":{"ha":1036,"x_min":0,"x_max":0,"o":"m 279 539 b 488 761 401 539 488 638 b 279 983 488 885 401 983 b 68 761 157 983 68 885 b 279 539 68 638 157 539 z m 111 0 l 215 0 l 921 972 l 817 972 z m 279 621 b 157 761 204 621 157 682 b 279 903 157 842 204 903 b 400 761 353 903 400 842 b 279 621 400 682 353 621 z m 756 -11 b 965 211 878 -11 965 88 b 756 433 965 335 878 433 b 546 211 635 433 546 335 b 756 -11 546 88 635 -11 z m 756 71 b 635 211 682 71 635 132 b 756 353 635 292 682 353 b 876 211 831 353 876 292 b 756 71 876 132 831 71 z "},"‰":{"ha":1524,"x_min":0,"x_max":0,"o":"m 281 539 b 489 761 401 539 489 638 b 281 983 489 885 401 983 b 69 761 158 983 69 885 b 281 539 69 638 158 539 z m 113 0 l 217 0 l 922 972 l 818 972 z m 281 621 b 158 761 206 621 158 682 b 281 903 158 842 206 903 b 401 761 354 903 401 842 b 281 621 401 682 354 621 z m 757 -11 b 967 211 879 -11 967 88 b 757 433 967 335 879 433 b 547 211 635 433 547 335 b 757 -11 547 88 635 -11 z m 1244 -11 b 1454 211 1367 -11 1454 88 b 1244 433 1454 335 1367 433 b 1035 211 1124 433 1035 335 b 1244 -11 1035 88 1124 -11 z m 757 71 b 636 211 683 71 636 132 b 757 353 636 292 683 353 b 878 211 832 353 878 292 b 757 71 878 132 832 71 z m 1244 71 b 1124 211 1171 71 1124 132 b 1244 353 1124 292 1171 353 b 1365 211 1319 353 1365 292 b 1244 71 1365 132 1319 71 z "},"↑":{"ha":869,"x_min":0,"x_max":0,"o":"m 815 513 l 435 893 l 53 511 l 118 447 l 386 717 l 386 13 l 483 13 l 483 717 l 751 449 z "},"↗":{"ha":799,"x_min":0,"x_max":0,"o":"m 161 679 l 163 589 l 542 589 l 44 92 l 114 22 l 611 521 l 611 142 l 701 142 l 701 679 z "},"→":{"ha":986,"x_min":0,"x_max":0,"o":"m 551 742 l 488 676 l 757 408 l 53 408 l 53 311 l 757 311 l 489 43 l 553 -21 l 933 360 z "},"↘":{"ha":807,"x_min":0,"x_max":0,"o":"m 619 544 l 619 165 l 122 663 l 53 593 l 551 96 l 172 96 l 172 6 l 710 6 l 710 546 z "},"↓":{"ha":869,"x_min":0,"x_max":0,"o":"m 751 444 l 482 175 l 482 879 l 385 879 l 385 175 l 117 443 l 53 379 l 433 0 l 815 381 z "},"↙":{"ha":807,"x_min":0,"x_max":0,"o":"m 753 586 l 683 656 l 186 158 l 188 538 l 96 539 l 96 -1 l 635 -1 l 635 89 l 256 89 z "},"←":{"ha":986,"x_min":0,"x_max":0,"o":"m 933 408 l 229 408 l 499 676 l 435 742 l 53 360 l 433 -21 l 497 43 l 229 311 l 933 311 z "},"↖":{"ha":807,"x_min":0,"x_max":0,"o":"m 753 92 l 256 589 l 636 589 l 636 679 l 97 679 l 97 142 l 188 142 l 188 521 l 685 22 z "},"↔":{"ha":1429,"x_min":0,"x_max":0,"o":"m 994 742 l 931 676 l 1200 408 l 229 408 l 499 676 l 435 742 l 53 360 l 433 -21 l 497 43 l 229 311 l 1200 311 l 932 43 l 996 -21 l 1376 360 z "},"↕":{"ha":869,"x_min":0,"x_max":0,"o":"m 482 -58 l 482 914 l 751 644 l 815 708 l 433 1089 l 53 710 l 117 646 l 385 914 l 385 -58 l 117 210 l 53 146 l 433 -233 l 815 147 l 751 211 z "},"●":{"ha":1110,"x_min":0,"x_max":0,"o":"m 58 486 b 556 -11 58 210 281 -11 b 1053 486 831 -11 1053 210 b 556 983 1053 761 831 983 b 58 486 281 983 58 761 z "},"◊":{"ha":788,"x_min":0,"x_max":0,"o":"m 340 0 l 447 0 l 718 486 l 447 972 l 340 972 l 68 486 z m 393 106 l 181 486 l 393 867 l 607 486 z "},"@":{"ha":1260,"x_min":0,"x_max":0,"o":"m 765 997 l 524 997 b 78 597 257 997 78 836 l 78 257 b 524 -161 78 7 257 -161 l 821 -161 l 821 -65 l 524 -65 b 185 257 321 -65 185 64 l 185 597 b 524 899 185 778 321 899 l 765 899 b 1101 600 968 899 1101 779 l 1101 407 b 988 235 1101 292 1067 235 b 896 318 933 235 896 268 l 896 700 l 796 700 l 796 618 b 611 708 760 672 685 708 b 342 421 438 708 342 585 b 611 133 342 258 438 133 b 817 236 715 133 790 176 b 986 138 835 175 904 138 b 1207 407 1128 138 1207 235 l 1207 600 b 765 997 1207 839 1031 997 z m 622 217 b 440 421 513 217 440 299 b 622 625 440 544 513 625 b 803 421 732 625 803 544 b 622 217 803 299 732 218 z "},"&":{"ha":933,"x_min":0,"x_max":0,"o":"m 893 0 l 711 200 l 747 265 b 883 343 774 311 824 343 l 883 450 b 679 328 814 450 746 438 l 643 274 l 442 494 b 649 765 549 550 649 621 b 406 983 649 893 549 983 b 160 756 261 983 160 889 b 278 526 160 678 215 597 b 75 261 172 471 75 400 b 378 -11 75 90 192 -11 b 657 115 474 -11 581 22 l 765 0 z m 267 753 b 406 893 267 835 324 893 b 543 763 486 893 543 839 b 371 574 543 669 464 621 b 267 753 321 628 267 692 z m 378 89 b 185 260 254 89 185 151 b 350 447 185 351 260 401 l 588 192 b 378 89 526 114 446 89 z "},"¶":{"ha":940,"x_min":0,"x_max":0,"o":"m 333 -283 l 446 -283 l 446 872 l 672 872 l 672 -283 l 783 -283 l 783 872 l 872 872 l 872 972 l 333 972 b 61 715 182 972 61 858 b 333 460 61 574 182 460 z "},"§":{"ha":792,"x_min":0,"x_max":0,"o":"m 658 138 b 742 308 706 179 742 238 b 197 739 742 654 197 508 b 388 878 197 824 268 878 b 597 711 504 878 588 811 l 707 711 b 388 983 694 878 568 983 b 79 739 204 983 79 885 b 157 569 79 660 110 607 b 64 399 103 526 64 468 b 604 -33 64 67 604 199 b 393 -189 604 -140 515 -189 b 161 17 257 -189 172 -107 l 50 17 b 393 -294 61 -171 190 -294 b 725 -32 583 -294 721 -199 b 658 138 728 46 701 99 z m 182 399 b 264 513 182 449 214 489 b 619 308 419 454 619 449 b 558 194 619 260 594 221 b 182 399 399 257 182 254 z "},"©":{"ha":1283,"x_min":0,"x_max":0,"o":"m 643 -56 b 1185 486 949 -56 1185 182 b 643 1028 1185 792 949 1028 b 101 486 339 1028 101 792 b 643 -56 101 182 339 -56 z m 643 15 b 176 486 382 15 178 221 b 643 958 178 753 382 958 b 1110 486 906 958 1108 753 b 643 15 1108 221 906 15 z m 650 161 b 921 368 793 161 907 247 l 840 368 b 650 231 831 289 750 231 b 421 489 517 231 421 322 b 650 747 421 657 517 747 b 840 611 749 747 828 690 l 922 611 b 650 818 904 731 790 818 b 340 489 490 818 340 711 b 650 161 340 268 489 161 z "},"®":{"ha":1283,"x_min":0,"x_max":0,"o":"m 643 1028 b 101 486 339 1028 101 792 b 643 -56 101 182 339 -56 b 1185 486 949 -56 1185 182 b 643 1028 1185 792 949 1028 z m 643 15 b 176 486 382 15 178 221 b 643 958 178 753 382 958 b 1110 486 906 958 1108 753 b 643 15 1108 221 906 15 z m 885 622 b 679 811 885 735 807 811 l 436 811 l 436 168 l 514 168 l 514 429 l 689 429 b 793 324 749 429 790 385 l 804 168 l 881 168 l 869 328 b 783 472 865 393 833 444 b 885 622 844 501 885 551 z m 679 500 l 514 500 l 514 742 l 679 742 b 804 622 769 742 804 686 b 679 500 804 558 769 500 z "},"™":{"ha":1174,"x_min":0,"x_max":0,"o":"m 200 417 l 283 417 l 283 899 l 454 899 l 454 972 l 31 972 l 31 899 l 200 899 z m 563 417 l 647 417 l 647 797 l 800 468 l 849 468 l 1001 797 l 1001 417 l 1086 417 l 1086 972 l 997 972 l 824 597 l 651 972 l 563 972 z "},"°":{"ha":475,"x_min":0,"x_max":0,"o":"m 236 657 b 407 819 338 657 407 726 b 236 981 407 911 338 981 b 67 819 136 981 67 911 b 236 657 67 726 136 657 z m 236 735 b 147 819 185 735 147 769 b 236 903 147 868 185 903 b 325 819 290 903 325 868 b 236 735 325 769 290 735 z "},"|":{"ha":313,"x_min":0,"x_max":0,"o":"m 103 -69 l 211 -69 l 211 1042 l 103 1042 z "},"¦":{"ha":313,"x_min":0,"x_max":0,"o":"m 103 557 l 211 557 l 211 1042 l 103 1042 z m 103 -69 l 211 -69 l 211 415 l 103 415 z "},"†":{"ha":647,"x_min":0,"x_max":0,"o":"m 269 -69 l 378 -69 l 378 604 l 582 604 l 582 700 l 378 700 l 378 1042 l 269 1042 l 269 700 l 65 700 l 65 604 l 269 604 z "},"‡":{"ha":647,"x_min":0,"x_max":0,"o":"m 582 604 l 582 700 l 378 700 l 378 1042 l 269 1042 l 269 700 l 65 700 l 65 604 l 269 604 l 269 96 l 65 96 l 65 0 l 269 0 l 269 -342 l 378 -342 l 378 0 l 582 0 l 582 96 l 378 96 l 378 604 z "},"♩":{"ha":638,"x_min":0,"x_max":0,"o":"m 476 972 l 476 193 b 319 249 433 228 379 249 b 69 0 181 249 69 138 b 319 -250 69 -139 181 -250 b 568 0 457 -250 568 -139 l 568 972 z "},"♪":{"ha":1026,"x_min":0,"x_max":0,"o":"m 701 972 l 476 972 l 476 193 b 319 249 433 228 379 249 b 69 0 181 249 69 138 b 319 -250 69 -139 181 -250 b 568 0 457 -250 568 -139 l 568 885 l 701 885 b 876 715 803 885 876 814 l 876 642 l 957 642 l 957 715 b 701 972 957 865 850 972 z "},"♫":{"ha":1326,"x_min":0,"x_max":0,"o":"m 1257 972 l 476 972 l 476 193 b 319 249 433 228 379 249 b 69 0 181 249 69 138 b 319 -250 69 -139 181 -250 b 568 0 457 -250 568 -139 l 568 885 l 1165 885 l 1165 193 b 1008 249 1122 228 1068 249 b 758 0 869 249 758 138 b 1008 -250 758 -139 869 -250 b 1257 0 1146 -250 1257 -139 z "},"̈":{"ha":0,"x_min":0,"x_max":0,"o":"m -457 957 l -457 828 l -351 828 l -351 957 z m -229 957 l -229 828 l -124 828 l -124 957 z "},"̇":{"ha":0,"x_min":0,"x_max":0,"o":"m -219 988 l -219 832 l -92 832 l -92 988 z "},"̀":{"ha":0,"x_min":0,"x_max":0,"o":"m -12 776 l -133 982 l -262 982 l -118 776 z "},"́":{"ha":0,"x_min":0,"x_max":0,"o":"m -264 776 l -158 776 l -14 982 l -143 982 z "},"̋":{"ha":0,"x_min":0,"x_max":0,"o":"m -422 776 l -317 776 l -172 982 l -301 982 z m -235 776 l -129 776 l 17 982 l -114 982 z "},"̂":{"ha":0,"x_min":0,"x_max":0,"o":"m -318 971 l -469 776 l -367 776 l -271 893 l -178 776 l -72 776 l -225 971 z "},"̌":{"ha":0,"x_min":0,"x_max":0,"o":"m -317 778 l -222 778 l -71 972 l -175 972 l -269 857 l -364 972 l -468 972 z "},"̆":{"ha":0,"x_min":0,"x_max":0,"o":"m -297 779 b -103 972 -186 779 -103 861 l -194 972 b -297 867 -194 910 -239 867 b -400 972 -357 867 -400 910 l -493 972 b -297 779 -493 861 -411 779 z "},"̊":{"ha":0,"x_min":0,"x_max":0,"o":"m -199 757 b -31 911 -103 757 -31 822 b -199 1063 -31 997 -103 1063 b -365 911 -294 1063 -365 997 b -199 757 -365 822 -294 757 z m -199 828 b -285 911 -249 828 -285 863 b -199 993 -285 958 -249 993 b -110 911 -147 993 -110 958 b -199 828 -110 863 -147 828 z "},"̃":{"ha":0,"x_min":0,"x_max":0,"o":"m -174 814 b -43 956 -101 814 -49 869 l -128 956 b -183 907 -135 926 -156 907 b -347 963 -232 907 -265 963 b -478 821 -418 963 -471 906 l -392 821 b -337 869 -386 850 -365 869 b -174 814 -289 869 -254 814 z "},"̄":{"ha":0,"x_min":0,"x_max":0,"o":"m -439 821 l -69 821 l -69 914 l -439 914 z "},"̒":{"ha":0,"x_min":0,"x_max":0,"o":"m -72 989 l -153 989 l -233 781 l -114 781 z "},"̦":{"ha":0,"x_min":0,"x_max":0,"o":"m -287 -294 l -194 -294 l -69 -94 l -222 -94 z "},"̧":{"ha":0,"x_min":0,"x_max":0,"o":"m -112 -285 l -12 -82 l -108 -82 l -258 -285 z "},"̨":{"ha":0,"x_min":0,"x_max":0,"o":"m -47 -187 l -94 -119 b -158 -154 -115 -142 -133 -154 b -206 -110 -187 -154 -206 -137 b -122 0 -206 -76 -178 -46 l -210 0 b -300 -133 -269 -36 -300 -86 b -176 -244 -300 -200 -253 -244 b -47 -187 -122 -244 -83 -226 z "},"´":{"ha":381,"x_min":0,"x_max":0,"o":"m 63 776 l 167 776 l 311 982 l 183 982 z "},"˘":{"ha":550,"x_min":0,"x_max":0,"o":"m 231 779 b 426 972 342 779 426 861 l 333 972 b 231 867 333 910 289 867 b 129 972 171 867 129 910 l 35 972 b 231 779 35 861 117 779 z "},"ˇ":{"ha":542,"x_min":0,"x_max":0,"o":"m 189 778 l 282 778 l 433 972 l 329 972 l 235 857 l 140 972 l 36 972 z "},"¸":{"ha":339,"x_min":0,"x_max":0,"o":"m 179 -285 l 281 -82 l 183 -82 l 35 -285 z "},"ˆ":{"ha":549,"x_min":0,"x_max":0,"o":"m 219 971 l 67 776 l 171 776 l 265 893 l 360 776 l 464 776 l 313 971 z "},"¨":{"ha":506,"x_min":0,"x_max":0,"o":"m 35 957 l 35 828 l 140 828 l 140 957 z m 263 957 l 263 828 l 368 828 l 368 957 z "},"˙":{"ha":281,"x_min":0,"x_max":0,"o":"m 35 988 l 35 832 l 163 832 l 163 988 z "},"˝":{"ha":600,"x_min":0,"x_max":0,"o":"m 39 776 l 144 776 l 289 982 l 160 982 z m 226 776 l 332 776 l 476 982 l 347 982 z "},"¯":{"ha":501,"x_min":0,"x_max":0,"o":"m 28 821 l 397 821 l 397 914 l 28 914 z "},"˛":{"ha":347,"x_min":0,"x_max":0,"o":"m 285 -187 l 238 -119 b 174 -154 218 -142 199 -154 b 128 -110 146 -154 128 -137 b 211 0 128 -76 154 -46 l 122 0 b 32 -133 63 -36 32 -86 b 156 -244 32 -200 79 -244 b 285 -187 210 -244 250 -226 z "},"˚":{"ha":433,"x_min":0,"x_max":0,"o":"m 201 757 b 369 911 297 757 369 822 b 201 1063 369 997 297 1063 b 35 911 106 1063 35 997 b 201 757 35 822 106 757 z m 201 828 b 115 911 151 828 115 863 b 201 993 115 958 151 993 b 289 911 253 993 289 958 b 201 828 289 863 253 828 z "},"˜":{"ha":554,"x_min":0,"x_max":0,"o":"m 343 814 b 474 956 415 814 468 869 l 389 956 b 333 907 382 926 361 907 b 169 963 285 907 251 963 b 39 821 99 963 46 906 l 125 821 b 179 869 131 850 151 869 b 343 814 228 869 263 814 z "}}}
